solid mesh
facet normal 0.0 0.0 -1.0
	outer loop
		vertex 0.0 0.0 -2.0
		vertex 0.0 2.0 -2.0
		vertex 0.684040286651 1.87938524157 -2.0
	endloop
endfacet
facet normal 0.0 0.0 -1.0
	outer loop
		vertex 0.0 0.0 -2.0
		vertex 0.684040286651 1.87938524157 -2.0
		vertex 1.28557521937 1.53208888624 -2.0
	endloop
endfacet
facet normal 0.0 0.0 -1.0
	outer loop
		vertex 0.0 0.0 -2.0
		vertex 1.28557521937 1.53208888624 -2.0
		vertex 1.73205080757 1.0 -2.0
	endloop
endfacet
facet normal 0.0 0.0 -1.0
	outer loop
		vertex 0.0 0.0 -2.0
		vertex 1.73205080757 1.0 -2.0
		vertex 1.96961550602 0.347296355334 -2.0
	endloop
endfacet
facet normal 0.0 0.0 -1.0
	outer loop
		vertex 0.0 0.0 -2.0
		vertex 1.96961550602 0.347296355334 -2.0
		vertex 1.96961550602 -0.347296355334 -2.0
	endloop
endfacet
facet normal 0.0 0.0 -1.0
	outer loop
		vertex 0.0 0.0 -2.0
		vertex 1.96961550602 -0.347296355334 -2.0
		vertex 1.73205080757 -1.0 -2.0
	endloop
endfacet
facet normal 0.0 0.0 -1.0
	outer loop
		vertex 0.0 0.0 -2.0
		vertex 1.73205080757 -1.0 -2.0
		vertex 1.28557521937 -1.53208888624 -2.0
	endloop
endfacet
facet normal 0.0 0.0 -1.0
	outer loop
		vertex 0.0 0.0 -2.0
		vertex 1.28557521937 -1.53208888624 -2.0
		vertex 0.684040286651 -1.87938524157 -2.0
	endloop
endfacet
facet normal 0.0 0.0 -1.0
	outer loop
		vertex 0.0 0.0 -2.0
		vertex 0.684040286651 -1.87938524157 -2.0
		vertex 2.44929359829e-16 -2.0 -2.0
	endloop
endfacet
facet normal 0.0 -0.0 -1.0
	outer loop
		vertex 0.0 0.0 -2.0
		vertex 2.44929359829e-16 -2.0 -2.0
		vertex -0.684040286651 -1.87938524157 -2.0
	endloop
endfacet
facet normal 0.0 0.0 -1.0
	outer loop
		vertex 0.0 0.0 -2.0
		vertex -0.684040286651 -1.87938524157 -2.0
		vertex -1.28557521937 -1.53208888624 -2.0
	endloop
endfacet
facet normal 0.0 0.0 -1.0
	outer loop
		vertex 0.0 0.0 -2.0
		vertex -1.28557521937 -1.53208888624 -2.0
		vertex -1.73205080757 -1.0 -2.0
	endloop
endfacet
facet normal 0.0 0.0 -1.0
	outer loop
		vertex 0.0 0.0 -2.0
		vertex -1.73205080757 -1.0 -2.0
		vertex -1.96961550602 -0.347296355334 -2.0
	endloop
endfacet
facet normal -0.0 0.0 -1.0
	outer loop
		vertex 0.0 0.0 -2.0
		vertex -1.96961550602 -0.347296355334 -2.0
		vertex -1.96961550602 0.347296355334 -2.0
	endloop
endfacet
facet normal 0.0 0.0 -1.0
	outer loop
		vertex 0.0 0.0 -2.0
		vertex -1.96961550602 0.347296355334 -2.0
		vertex -1.73205080757 1.0 -2.0
	endloop
endfacet
facet normal 0.0 0.0 -1.0
	outer loop
		vertex 0.0 0.0 -2.0
		vertex -1.73205080757 1.0 -2.0
		vertex -1.28557521937 1.53208888624 -2.0
	endloop
endfacet
facet normal 0.0 0.0 -1.0
	outer loop
		vertex 0.0 0.0 -2.0
		vertex -1.28557521937 1.53208888624 -2.0
		vertex -0.684040286651 1.87938524157 -2.0
	endloop
endfacet
facet normal 0.0 0.0 -1.0
	outer loop
		vertex 0.0 0.0 -2.0
		vertex -0.684040286651 1.87938524157 -2.0
		vertex 0.0 2.0 -2.0
	endloop
endfacet
facet normal 0.162894924622 0.923823024519 0.346433634195
	outer loop
		vertex 0.0 2.0 -2.0
		vertex 0.0 1.625 -1.0
		vertex 0.684040286651 1.87938524157 -2.0
	endloop
endfacet
facet normal 0.162894924622 0.923823024519 0.346433634195
	outer loop
		vertex 0.684040286651 1.87938524157 -2.0
		vertex 0.0 1.625 -1.0
		vertex 0.555782732904 1.52700050878 -1.0
	endloop
endfacet
facet normal 0.469037241885 0.812396333586 0.346433634195
	outer loop
		vertex 0.684040286651 1.87938524157 -2.0
		vertex 0.555782732904 1.52700050878 -1.0
		vertex 1.28557521937 1.53208888624 -2.0
	endloop
endfacet
facet normal 0.469037241885 0.812396333586 0.346433634195
	outer loop
		vertex 1.28557521937 1.53208888624 -2.0
		vertex 0.555782732904 1.52700050878 -1.0
		vertex 1.04452986574 1.24482222007 -1.0
	endloop
endfacet
facet normal 0.718606745523 0.60298265513 0.346433634195
	outer loop
		vertex 1.28557521937 1.53208888624 -2.0
		vertex 1.04452986574 1.24482222007 -1.0
		vertex 1.73205080757 1.0 -2.0
	endloop
endfacet
facet normal 0.718606745523 0.60298265513 0.346433634195
	outer loop
		vertex 1.73205080757 1.0 -2.0
		vertex 1.04452986574 1.24482222007 -1.0
		vertex 1.40729128115 0.8125 -1.0
	endloop
endfacet
facet normal 0.881501670145 0.320840369389 0.346433634195
	outer loop
		vertex 1.73205080757 1.0 -2.0
		vertex 1.40729128115 0.8125 -1.0
		vertex 1.96961550602 0.347296355334 -2.0
	endloop
endfacet
facet normal 0.881501670145 0.320840369389 0.346433634195
	outer loop
		vertex 1.96961550602 0.347296355334 -2.0
		vertex 1.40729128115 0.8125 -1.0
		vertex 1.60031259864 0.282178288709 -1.0
	endloop
endfacet
facet normal 0.938074483769 0.0 0.346433634195
	outer loop
		vertex 1.96961550602 0.347296355334 -2.0
		vertex 1.60031259864 0.282178288709 -1.0
		vertex 1.96961550602 -0.347296355334 -2.0
	endloop
endfacet
facet normal 0.938074483769 0.0 0.346433634195
	outer loop
		vertex 1.96961550602 -0.347296355334 -2.0
		vertex 1.60031259864 0.282178288709 -1.0
		vertex 1.60031259864 -0.282178288709 -1.0
	endloop
endfacet
facet normal 0.881501670145 -0.320840369389 0.346433634195
	outer loop
		vertex 1.96961550602 -0.347296355334 -2.0
		vertex 1.60031259864 -0.282178288709 -1.0
		vertex 1.73205080757 -1.0 -2.0
	endloop
endfacet
facet normal 0.881501670145 -0.320840369389 0.346433634195
	outer loop
		vertex 1.73205080757 -1.0 -2.0
		vertex 1.60031259864 -0.282178288709 -1.0
		vertex 1.40729128115 -0.8125 -1.0
	endloop
endfacet
facet normal 0.718606745523 -0.60298265513 0.346433634195
	outer loop
		vertex 1.73205080757 -1.0 -2.0
		vertex 1.40729128115 -0.8125 -1.0
		vertex 1.28557521937 -1.53208888624 -2.0
	endloop
endfacet
facet normal 0.718606745523 -0.60298265513 0.346433634195
	outer loop
		vertex 1.28557521937 -1.53208888624 -2.0
		vertex 1.40729128115 -0.8125 -1.0
		vertex 1.04452986574 -1.24482222007 -1.0
	endloop
endfacet
facet normal 0.469037241885 -0.812396333586 0.346433634195
	outer loop
		vertex 1.28557521937 -1.53208888624 -2.0
		vertex 1.04452986574 -1.24482222007 -1.0
		vertex 0.684040286651 -1.87938524157 -2.0
	endloop
endfacet
facet normal 0.469037241885 -0.812396333586 0.346433634195
	outer loop
		vertex 0.684040286651 -1.87938524157 -2.0
		vertex 1.04452986574 -1.24482222007 -1.0
		vertex 0.555782732904 -1.52700050878 -1.0
	endloop
endfacet
facet normal 0.162894924622 -0.923823024519 0.346433634195
	outer loop
		vertex 0.684040286651 -1.87938524157 -2.0
		vertex 0.555782732904 -1.52700050878 -1.0
		vertex 2.44929359829e-16 -2.0 -2.0
	endloop
endfacet
facet normal 0.162894924622 -0.923823024519 0.346433634195
	outer loop
		vertex 2.44929359829e-16 -2.0 -2.0
		vertex 0.555782732904 -1.52700050878 -1.0
		vertex 1.99005104861e-16 -1.625 -1.0
	endloop
endfacet
facet normal -0.162894924622 -0.923823024519 0.346433634195
	outer loop
		vertex 2.44929359829e-16 -2.0 -2.0
		vertex 1.99005104861e-16 -1.625 -1.0
		vertex -0.684040286651 -1.87938524157 -2.0
	endloop
endfacet
facet normal -0.162894924622 -0.923823024519 0.346433634195
	outer loop
		vertex -0.684040286651 -1.87938524157 -2.0
		vertex 1.99005104861e-16 -1.625 -1.0
		vertex -0.555782732904 -1.52700050878 -1.0
	endloop
endfacet
facet normal -0.469037241885 -0.812396333586 0.346433634195
	outer loop
		vertex -0.684040286651 -1.87938524157 -2.0
		vertex -0.555782732904 -1.52700050878 -1.0
		vertex -1.28557521937 -1.53208888624 -2.0
	endloop
endfacet
facet normal -0.469037241885 -0.812396333586 0.346433634195
	outer loop
		vertex -1.28557521937 -1.53208888624 -2.0
		vertex -0.555782732904 -1.52700050878 -1.0
		vertex -1.04452986574 -1.24482222007 -1.0
	endloop
endfacet
facet normal -0.718606745523 -0.60298265513 0.346433634195
	outer loop
		vertex -1.28557521937 -1.53208888624 -2.0
		vertex -1.04452986574 -1.24482222007 -1.0
		vertex -1.73205080757 -1.0 -2.0
	endloop
endfacet
facet normal -0.718606745523 -0.60298265513 0.346433634195
	outer loop
		vertex -1.73205080757 -1.0 -2.0
		vertex -1.04452986574 -1.24482222007 -1.0
		vertex -1.40729128115 -0.8125 -1.0
	endloop
endfacet
facet normal -0.881501670145 -0.320840369389 0.346433634195
	outer loop
		vertex -1.73205080757 -1.0 -2.0
		vertex -1.40729128115 -0.8125 -1.0
		vertex -1.96961550602 -0.347296355334 -2.0
	endloop
endfacet
facet normal -0.881501670145 -0.320840369389 0.346433634195
	outer loop
		vertex -1.96961550602 -0.347296355334 -2.0
		vertex -1.40729128115 -0.8125 -1.0
		vertex -1.60031259864 -0.282178288709 -1.0
	endloop
endfacet
facet normal -0.938074483769 -2.99879879158e-16 0.346433634195
	outer loop
		vertex -1.96961550602 -0.347296355334 -2.0
		vertex -1.60031259864 -0.282178288709 -1.0
		vertex -1.96961550602 0.347296355334 -2.0
	endloop
endfacet
facet normal -0.938074483769 -3.69082928194e-16 0.346433634195
	outer loop
		vertex -1.96961550602 0.347296355334 -2.0
		vertex -1.60031259864 -0.282178288709 -1.0
		vertex -1.60031259864 0.282178288709 -1.0
	endloop
endfacet
facet normal -0.881501670145 0.320840369389 0.346433634195
	outer loop
		vertex -1.96961550602 0.347296355334 -2.0
		vertex -1.60031259864 0.282178288709 -1.0
		vertex -1.73205080757 1.0 -2.0
	endloop
endfacet
facet normal -0.881501670145 0.320840369389 0.346433634195
	outer loop
		vertex -1.73205080757 1.0 -2.0
		vertex -1.60031259864 0.282178288709 -1.0
		vertex -1.40729128115 0.8125 -1.0
	endloop
endfacet
facet normal -0.718606745523 0.60298265513 0.346433634195
	outer loop
		vertex -1.73205080757 1.0 -2.0
		vertex -1.40729128115 0.8125 -1.0
		vertex -1.28557521937 1.53208888624 -2.0
	endloop
endfacet
facet normal -0.718606745523 0.60298265513 0.346433634195
	outer loop
		vertex -1.28557521937 1.53208888624 -2.0
		vertex -1.40729128115 0.8125 -1.0
		vertex -1.04452986574 1.24482222007 -1.0
	endloop
endfacet
facet normal -0.469037241885 0.812396333586 0.346433634195
	outer loop
		vertex -1.28557521937 1.53208888624 -2.0
		vertex -1.04452986574 1.24482222007 -1.0
		vertex -0.684040286651 1.87938524157 -2.0
	endloop
endfacet
facet normal -0.469037241885 0.812396333586 0.346433634195
	outer loop
		vertex -0.684040286651 1.87938524157 -2.0
		vertex -1.04452986574 1.24482222007 -1.0
		vertex -0.555782732904 1.52700050878 -1.0
	endloop
endfacet
facet normal -0.162894924622 0.923823024519 0.346433634195
	outer loop
		vertex -0.684040286651 1.87938524157 -2.0
		vertex -0.555782732904 1.52700050878 -1.0
		vertex 0.0 2.0 -2.0
	endloop
endfacet
facet normal -0.162894924622 0.923823024519 0.346433634195
	outer loop
		vertex 0.0 2.0 -2.0
		vertex -0.555782732904 1.52700050878 -1.0
		vertex 0.0 1.625 -1.0
	endloop
endfacet
facet normal 0.162894924622 0.923823024519 0.346433634195
	outer loop
		vertex 0.0 1.625 -1.0
		vertex 0.0 1.25 0.0
		vertex 0.555782732904 1.52700050878 -1.0
	endloop
endfacet
facet normal 0.162894924622 0.923823024519 0.346433634195
	outer loop
		vertex 0.555782732904 1.52700050878 -1.0
		vertex 0.0 1.25 0.0
		vertex 0.427525179157 1.17461577598 0.0
	endloop
endfacet
facet normal 0.469037241885 0.812396333586 0.346433634195
	outer loop
		vertex 0.555782732904 1.52700050878 -1.0
		vertex 0.427525179157 1.17461577598 0.0
		vertex 1.04452986574 1.24482222007 -1.0
	endloop
endfacet
facet normal 0.469037241885 0.812396333586 0.346433634195
	outer loop
		vertex 1.04452986574 1.24482222007 -1.0
		vertex 0.427525179157 1.17461577598 0.0
		vertex 0.803484512108 0.957555553899 0.0
	endloop
endfacet
facet normal 0.718606745523 0.60298265513 0.346433634195
	outer loop
		vertex 1.04452986574 1.24482222007 -1.0
		vertex 0.803484512108 0.957555553899 0.0
		vertex 1.40729128115 0.8125 -1.0
	endloop
endfacet
facet normal 0.718606745523 0.60298265513 0.346433634195
	outer loop
		vertex 1.40729128115 0.8125 -1.0
		vertex 0.803484512108 0.957555553899 0.0
		vertex 1.08253175473 0.625 0.0
	endloop
endfacet
facet normal 0.881501670145 0.320840369389 0.346433634195
	outer loop
		vertex 1.40729128115 0.8125 -1.0
		vertex 1.08253175473 0.625 0.0
		vertex 1.60031259864 0.282178288709 -1.0
	endloop
endfacet
facet normal 0.881501670145 0.320840369389 0.346433634195
	outer loop
		vertex 1.60031259864 0.282178288709 -1.0
		vertex 1.08253175473 0.625 0.0
		vertex 1.23100969127 0.217060222084 0.0
	endloop
endfacet
facet normal 0.938074483769 0.0 0.346433634195
	outer loop
		vertex 1.60031259864 0.282178288709 -1.0
		vertex 1.23100969127 0.217060222084 0.0
		vertex 1.60031259864 -0.282178288709 -1.0
	endloop
endfacet
facet normal 0.938074483769 0.0 0.346433634195
	outer loop
		vertex 1.60031259864 -0.282178288709 -1.0
		vertex 1.23100969127 0.217060222084 0.0
		vertex 1.23100969127 -0.217060222084 0.0
	endloop
endfacet
facet normal 0.881501670145 -0.320840369389 0.346433634195
	outer loop
		vertex 1.60031259864 -0.282178288709 -1.0
		vertex 1.23100969127 -0.217060222084 0.0
		vertex 1.40729128115 -0.8125 -1.0
	endloop
endfacet
facet normal 0.881501670145 -0.320840369389 0.346433634195
	outer loop
		vertex 1.40729128115 -0.8125 -1.0
		vertex 1.23100969127 -0.217060222084 0.0
		vertex 1.08253175473 -0.625 0.0
	endloop
endfacet
facet normal 0.718606745523 -0.60298265513 0.346433634195
	outer loop
		vertex 1.40729128115 -0.8125 -1.0
		vertex 1.08253175473 -0.625 0.0
		vertex 1.04452986574 -1.24482222007 -1.0
	endloop
endfacet
facet normal 0.718606745523 -0.60298265513 0.346433634195
	outer loop
		vertex 1.04452986574 -1.24482222007 -1.0
		vertex 1.08253175473 -0.625 0.0
		vertex 0.803484512108 -0.957555553899 0.0
	endloop
endfacet
facet normal 0.469037241885 -0.812396333586 0.346433634195
	outer loop
		vertex 1.04452986574 -1.24482222007 -1.0
		vertex 0.803484512108 -0.957555553899 0.0
		vertex 0.555782732904 -1.52700050878 -1.0
	endloop
endfacet
facet normal 0.469037241885 -0.812396333586 0.346433634195
	outer loop
		vertex 0.555782732904 -1.52700050878 -1.0
		vertex 0.803484512108 -0.957555553899 0.0
		vertex 0.427525179157 -1.17461577598 0.0
	endloop
endfacet
facet normal 0.162894924622 -0.923823024519 0.346433634195
	outer loop
		vertex 0.555782732904 -1.52700050878 -1.0
		vertex 0.427525179157 -1.17461577598 0.0
		vertex 1.99005104861e-16 -1.625 -1.0
	endloop
endfacet
facet normal 0.162894924622 -0.923823024519 0.346433634195
	outer loop
		vertex 1.99005104861e-16 -1.625 -1.0
		vertex 0.427525179157 -1.17461577598 0.0
		vertex 1.53080849893e-16 -1.25 0.0
	endloop
endfacet
facet normal -0.162894924622 -0.923823024519 0.346433634195
	outer loop
		vertex 1.99005104861e-16 -1.625 -1.0
		vertex 1.53080849893e-16 -1.25 0.0
		vertex -0.555782732904 -1.52700050878 -1.0
	endloop
endfacet
facet normal -0.162894924622 -0.923823024519 0.346433634195
	outer loop
		vertex -0.555782732904 -1.52700050878 -1.0
		vertex 1.53080849893e-16 -1.25 0.0
		vertex -0.427525179157 -1.17461577598 0.0
	endloop
endfacet
facet normal -0.469037241885 -0.812396333586 0.346433634195
	outer loop
		vertex -0.555782732904 -1.52700050878 -1.0
		vertex -0.427525179157 -1.17461577598 0.0
		vertex -1.04452986574 -1.24482222007 -1.0
	endloop
endfacet
facet normal -0.469037241885 -0.812396333586 0.346433634195
	outer loop
		vertex -1.04452986574 -1.24482222007 -1.0
		vertex -0.427525179157 -1.17461577598 0.0
		vertex -0.803484512108 -0.957555553899 0.0
	endloop
endfacet
facet normal -0.718606745523 -0.60298265513 0.346433634195
	outer loop
		vertex -1.04452986574 -1.24482222007 -1.0
		vertex -0.803484512108 -0.957555553899 0.0
		vertex -1.40729128115 -0.8125 -1.0
	endloop
endfacet
facet normal -0.718606745523 -0.60298265513 0.346433634195
	outer loop
		vertex -1.40729128115 -0.8125 -1.0
		vertex -0.803484512108 -0.957555553899 0.0
		vertex -1.08253175473 -0.625 0.0
	endloop
endfacet
facet normal -0.881501670145 -0.320840369389 0.346433634195
	outer loop
		vertex -1.40729128115 -0.8125 -1.0
		vertex -1.08253175473 -0.625 0.0
		vertex -1.60031259864 -0.282178288709 -1.0
	endloop
endfacet
facet normal -0.881501670145 -0.320840369389 0.346433634195
	outer loop
		vertex -1.60031259864 -0.282178288709 -1.0
		vertex -1.08253175473 -0.625 0.0
		vertex -1.23100969127 -0.217060222084 0.0
	endloop
endfacet
facet normal -0.938074483769 -3.69082928194e-16 0.346433634195
	outer loop
		vertex -1.60031259864 -0.282178288709 -1.0
		vertex -1.23100969127 -0.217060222084 0.0
		vertex -1.60031259864 0.282178288709 -1.0
	endloop
endfacet
facet normal -0.938074483769 -4.79807806652e-16 0.346433634195
	outer loop
		vertex -1.60031259864 0.282178288709 -1.0
		vertex -1.23100969127 -0.217060222084 0.0
		vertex -1.23100969127 0.217060222084 0.0
	endloop
endfacet
facet normal -0.881501670145 0.320840369389 0.346433634195
	outer loop
		vertex -1.60031259864 0.282178288709 -1.0
		vertex -1.23100969127 0.217060222084 0.0
		vertex -1.40729128115 0.8125 -1.0
	endloop
endfacet
facet normal -0.881501670145 0.320840369389 0.346433634195
	outer loop
		vertex -1.40729128115 0.8125 -1.0
		vertex -1.23100969127 0.217060222084 0.0
		vertex -1.08253175473 0.625 0.0
	endloop
endfacet
facet normal -0.718606745523 0.60298265513 0.346433634195
	outer loop
		vertex -1.40729128115 0.8125 -1.0
		vertex -1.08253175473 0.625 0.0
		vertex -1.04452986574 1.24482222007 -1.0
	endloop
endfacet
facet normal -0.718606745523 0.60298265513 0.346433634195
	outer loop
		vertex -1.04452986574 1.24482222007 -1.0
		vertex -1.08253175473 0.625 0.0
		vertex -0.803484512108 0.957555553899 0.0
	endloop
endfacet
facet normal -0.469037241885 0.812396333586 0.346433634195
	outer loop
		vertex -1.04452986574 1.24482222007 -1.0
		vertex -0.803484512108 0.957555553899 0.0
		vertex -0.555782732904 1.52700050878 -1.0
	endloop
endfacet
facet normal -0.469037241885 0.812396333586 0.346433634195
	outer loop
		vertex -0.555782732904 1.52700050878 -1.0
		vertex -0.803484512108 0.957555553899 0.0
		vertex -0.427525179157 1.17461577598 0.0
	endloop
endfacet
facet normal -0.162894924622 0.923823024519 0.346433634195
	outer loop
		vertex -0.555782732904 1.52700050878 -1.0
		vertex -0.427525179157 1.17461577598 0.0
		vertex 0.0 1.625 -1.0
	endloop
endfacet
facet normal -0.162894924622 0.923823024519 0.346433634195
	outer loop
		vertex 0.0 1.625 -1.0
		vertex -0.427525179157 1.17461577598 0.0
		vertex 0.0 1.25 0.0
	endloop
endfacet
facet normal 0.162894924622 0.923823024519 0.346433634195
	outer loop
		vertex 0.0 1.25 0.0
		vertex 0.0 0.875 1.0
		vertex 0.427525179157 1.17461577598 0.0
	endloop
endfacet
facet normal 0.162894924622 0.923823024519 0.346433634195
	outer loop
		vertex 0.427525179157 1.17461577598 0.0
		vertex 0.0 0.875 1.0
		vertex 0.29926762541 0.822231043188 1.0
	endloop
endfacet
facet normal 0.469037241885 0.812396333586 0.346433634195
	outer loop
		vertex 0.427525179157 1.17461577598 0.0
		vertex 0.29926762541 0.822231043188 1.0
		vertex 0.803484512108 0.957555553899 0.0
	endloop
endfacet
facet normal 0.469037241885 0.812396333586 0.346433634195
	outer loop
		vertex 0.803484512108 0.957555553899 0.0
		vertex 0.29926762541 0.822231043188 1.0
		vertex 0.562439158476 0.670288887729 1.0
	endloop
endfacet
facet normal 0.718606745523 0.60298265513 0.346433634195
	outer loop
		vertex 0.803484512108 0.957555553899 0.0
		vertex 0.562439158476 0.670288887729 1.0
		vertex 1.08253175473 0.625 0.0
	endloop
endfacet
facet normal 0.718606745523 0.60298265513 0.346433634195
	outer loop
		vertex 1.08253175473 0.625 0.0
		vertex 0.562439158476 0.670288887729 1.0
		vertex 0.757772228311 0.4375 1.0
	endloop
endfacet
facet normal 0.881501670145 0.320840369389 0.346433634195
	outer loop
		vertex 1.08253175473 0.625 0.0
		vertex 0.757772228311 0.4375 1.0
		vertex 1.23100969127 0.217060222084 0.0
	endloop
endfacet
facet normal 0.881501670145 0.320840369389 0.346433634195
	outer loop
		vertex 1.23100969127 0.217060222084 0.0
		vertex 0.757772228311 0.4375 1.0
		vertex 0.861706783886 0.151942155459 1.0
	endloop
endfacet
facet normal 0.938074483769 0.0 0.346433634195
	outer loop
		vertex 1.23100969127 0.217060222084 0.0
		vertex 0.861706783886 0.151942155459 1.0
		vertex 1.23100969127 -0.217060222084 0.0
	endloop
endfacet
facet normal 0.938074483769 0.0 0.346433634195
	outer loop
		vertex 1.23100969127 -0.217060222084 0.0
		vertex 0.861706783886 0.151942155459 1.0
		vertex 0.861706783886 -0.151942155459 1.0
	endloop
endfacet
facet normal 0.881501670145 -0.320840369389 0.346433634195
	outer loop
		vertex 1.23100969127 -0.217060222084 0.0
		vertex 0.861706783886 -0.151942155459 1.0
		vertex 1.08253175473 -0.625 0.0
	endloop
endfacet
facet normal 0.881501670145 -0.320840369389 0.346433634195
	outer loop
		vertex 1.08253175473 -0.625 0.0
		vertex 0.861706783886 -0.151942155459 1.0
		vertex 0.757772228311 -0.4375 1.0
	endloop
endfacet
facet normal 0.718606745523 -0.60298265513 0.346433634195
	outer loop
		vertex 1.08253175473 -0.625 0.0
		vertex 0.757772228311 -0.4375 1.0
		vertex 0.803484512108 -0.957555553899 0.0
	endloop
endfacet
facet normal 0.718606745523 -0.60298265513 0.346433634195
	outer loop
		vertex 0.803484512108 -0.957555553899 0.0
		vertex 0.757772228311 -0.4375 1.0
		vertex 0.562439158476 -0.670288887729 1.0
	endloop
endfacet
facet normal 0.469037241885 -0.812396333586 0.346433634195
	outer loop
		vertex 0.803484512108 -0.957555553899 0.0
		vertex 0.562439158476 -0.670288887729 1.0
		vertex 0.427525179157 -1.17461577598 0.0
	endloop
endfacet
facet normal 0.469037241885 -0.812396333586 0.346433634195
	outer loop
		vertex 0.427525179157 -1.17461577598 0.0
		vertex 0.562439158476 -0.670288887729 1.0
		vertex 0.29926762541 -0.822231043188 1.0
	endloop
endfacet
facet normal 0.162894924622 -0.923823024519 0.346433634195
	outer loop
		vertex 0.427525179157 -1.17461577598 0.0
		vertex 0.29926762541 -0.822231043188 1.0
		vertex 1.53080849893e-16 -1.25 0.0
	endloop
endfacet
facet normal 0.162894924622 -0.923823024519 0.346433634195
	outer loop
		vertex 1.53080849893e-16 -1.25 0.0
		vertex 0.29926762541 -0.822231043188 1.0
		vertex 1.07156594925e-16 -0.875 1.0
	endloop
endfacet
facet normal -0.162894924622 -0.923823024519 0.346433634195
	outer loop
		vertex 1.53080849893e-16 -1.25 0.0
		vertex 1.07156594925e-16 -0.875 1.0
		vertex -0.427525179157 -1.17461577598 0.0
	endloop
endfacet
facet normal -0.162894924622 -0.923823024519 0.346433634195
	outer loop
		vertex -0.427525179157 -1.17461577598 0.0
		vertex 1.07156594925e-16 -0.875 1.0
		vertex -0.29926762541 -0.822231043188 1.0
	endloop
endfacet
facet normal -0.469037241885 -0.812396333586 0.346433634195
	outer loop
		vertex -0.427525179157 -1.17461577598 0.0
		vertex -0.29926762541 -0.822231043188 1.0
		vertex -0.803484512108 -0.957555553899 0.0
	endloop
endfacet
facet normal -0.469037241885 -0.812396333586 0.346433634195
	outer loop
		vertex -0.803484512108 -0.957555553899 0.0
		vertex -0.29926762541 -0.822231043188 1.0
		vertex -0.562439158476 -0.670288887729 1.0
	endloop
endfacet
facet normal -0.718606745523 -0.60298265513 0.346433634195
	outer loop
		vertex -0.803484512108 -0.957555553899 0.0
		vertex -0.562439158476 -0.670288887729 1.0
		vertex -1.08253175473 -0.625 0.0
	endloop
endfacet
facet normal -0.718606745523 -0.60298265513 0.346433634195
	outer loop
		vertex -1.08253175473 -0.625 0.0
		vertex -0.562439158476 -0.670288887729 1.0
		vertex -0.757772228311 -0.4375 1.0
	endloop
endfacet
facet normal -0.881501670145 -0.320840369389 0.346433634195
	outer loop
		vertex -1.08253175473 -0.625 0.0
		vertex -0.757772228311 -0.4375 1.0
		vertex -1.23100969127 -0.217060222084 0.0
	endloop
endfacet
facet normal -0.881501670145 -0.320840369389 0.346433634195
	outer loop
		vertex -1.23100969127 -0.217060222084 0.0
		vertex -0.757772228311 -0.4375 1.0
		vertex -0.861706783886 -0.151942155459 1.0
	endloop
endfacet
facet normal -0.938074483769 -4.79807806652e-16 0.346433634195
	outer loop
		vertex -1.23100969127 -0.217060222084 0.0
		vertex -0.861706783886 -0.151942155459 1.0
		vertex -1.23100969127 0.217060222084 0.0
	endloop
endfacet
facet normal -0.938074483769 -3.42719861894e-16 0.346433634195
	outer loop
		vertex -1.23100969127 0.217060222084 0.0
		vertex -0.861706783886 -0.151942155459 1.0
		vertex -0.861706783886 0.151942155459 1.0
	endloop
endfacet
facet normal -0.881501670145 0.320840369389 0.346433634195
	outer loop
		vertex -1.23100969127 0.217060222084 0.0
		vertex -0.861706783886 0.151942155459 1.0
		vertex -1.08253175473 0.625 0.0
	endloop
endfacet
facet normal -0.881501670145 0.320840369389 0.346433634195
	outer loop
		vertex -1.08253175473 0.625 0.0
		vertex -0.861706783886 0.151942155459 1.0
		vertex -0.757772228311 0.4375 1.0
	endloop
endfacet
facet normal -0.718606745523 0.60298265513 0.346433634195
	outer loop
		vertex -1.08253175473 0.625 0.0
		vertex -0.757772228311 0.4375 1.0
		vertex -0.803484512108 0.957555553899 0.0
	endloop
endfacet
facet normal -0.718606745523 0.60298265513 0.346433634195
	outer loop
		vertex -0.803484512108 0.957555553899 0.0
		vertex -0.757772228311 0.4375 1.0
		vertex -0.562439158476 0.670288887729 1.0
	endloop
endfacet
facet normal -0.469037241885 0.812396333586 0.346433634195
	outer loop
		vertex -0.803484512108 0.957555553899 0.0
		vertex -0.562439158476 0.670288887729 1.0
		vertex -0.427525179157 1.17461577598 0.0
	endloop
endfacet
facet normal -0.469037241885 0.812396333586 0.346433634195
	outer loop
		vertex -0.427525179157 1.17461577598 0.0
		vertex -0.562439158476 0.670288887729 1.0
		vertex -0.29926762541 0.822231043188 1.0
	endloop
endfacet
facet normal -0.162894924622 0.923823024519 0.346433634195
	outer loop
		vertex -0.427525179157 1.17461577598 0.0
		vertex -0.29926762541 0.822231043188 1.0
		vertex 0.0 1.25 0.0
	endloop
endfacet
facet normal -0.162894924622 0.923823024519 0.346433634195
	outer loop
		vertex 0.0 1.25 0.0
		vertex -0.29926762541 0.822231043188 1.0
		vertex 0.0 0.875 1.0
	endloop
endfacet
facet normal 0.162894924622 0.923823024519 0.346433634195
	outer loop
		vertex 0.0 0.875 1.0
		vertex 0.0 0.5 2.0
		vertex 0.29926762541 0.822231043188 1.0
	endloop
endfacet
facet normal 0.162894924622 0.923823024519 0.346433634195
	outer loop
		vertex 0.29926762541 0.822231043188 1.0
		vertex 0.0 0.5 2.0
		vertex 0.171010071663 0.469846310393 2.0
	endloop
endfacet
facet normal 0.469037241885 0.812396333586 0.346433634195
	outer loop
		vertex 0.29926762541 0.822231043188 1.0
		vertex 0.171010071663 0.469846310393 2.0
		vertex 0.562439158476 0.670288887729 1.0
	endloop
endfacet
facet normal 0.469037241885 0.812396333586 0.346433634195
	outer loop
		vertex 0.562439158476 0.670288887729 1.0
		vertex 0.171010071663 0.469846310393 2.0
		vertex 0.321393804843 0.383022221559 2.0
	endloop
endfacet
facet normal 0.718606745523 0.60298265513 0.346433634195
	outer loop
		vertex 0.562439158476 0.670288887729 1.0
		vertex 0.321393804843 0.383022221559 2.0
		vertex 0.757772228311 0.4375 1.0
	endloop
endfacet
facet normal 0.718606745523 0.60298265513 0.346433634195
	outer loop
		vertex 0.757772228311 0.4375 1.0
		vertex 0.321393804843 0.383022221559 2.0
		vertex 0.433012701892 0.25 2.0
	endloop
endfacet
facet normal 0.881501670145 0.320840369389 0.346433634195
	outer loop
		vertex 0.757772228311 0.4375 1.0
		vertex 0.433012701892 0.25 2.0
		vertex 0.861706783886 0.151942155459 1.0
	endloop
endfacet
facet normal 0.881501670145 0.320840369389 0.346433634195
	outer loop
		vertex 0.861706783886 0.151942155459 1.0
		vertex 0.433012701892 0.25 2.0
		vertex 0.492403876506 0.0868240888335 2.0
	endloop
endfacet
facet normal 0.938074483769 0.0 0.346433634195
	outer loop
		vertex 0.861706783886 0.151942155459 1.0
		vertex 0.492403876506 0.0868240888335 2.0
		vertex 0.861706783886 -0.151942155459 1.0
	endloop
endfacet
facet normal 0.938074483769 0.0 0.346433634195
	outer loop
		vertex 0.861706783886 -0.151942155459 1.0
		vertex 0.492403876506 0.0868240888335 2.0
		vertex 0.492403876506 -0.0868240888335 2.0
	endloop
endfacet
facet normal 0.881501670145 -0.320840369389 0.346433634195
	outer loop
		vertex 0.861706783886 -0.151942155459 1.0
		vertex 0.492403876506 -0.0868240888335 2.0
		vertex 0.757772228311 -0.4375 1.0
	endloop
endfacet
facet normal 0.881501670145 -0.320840369389 0.346433634195
	outer loop
		vertex 0.757772228311 -0.4375 1.0
		vertex 0.492403876506 -0.0868240888335 2.0
		vertex 0.433012701892 -0.25 2.0
	endloop
endfacet
facet normal 0.718606745523 -0.60298265513 0.346433634195
	outer loop
		vertex 0.757772228311 -0.4375 1.0
		vertex 0.433012701892 -0.25 2.0
		vertex 0.562439158476 -0.670288887729 1.0
	endloop
endfacet
facet normal 0.718606745523 -0.60298265513 0.346433634195
	outer loop
		vertex 0.562439158476 -0.670288887729 1.0
		vertex 0.433012701892 -0.25 2.0
		vertex 0.321393804843 -0.383022221559 2.0
	endloop
endfacet
facet normal 0.469037241885 -0.812396333586 0.346433634195
	outer loop
		vertex 0.562439158476 -0.670288887729 1.0
		vertex 0.321393804843 -0.383022221559 2.0
		vertex 0.29926762541 -0.822231043188 1.0
	endloop
endfacet
facet normal 0.469037241885 -0.812396333586 0.346433634195
	outer loop
		vertex 0.29926762541 -0.822231043188 1.0
		vertex 0.321393804843 -0.383022221559 2.0
		vertex 0.171010071663 -0.469846310393 2.0
	endloop
endfacet
facet normal 0.162894924622 -0.923823024519 0.346433634195
	outer loop
		vertex 0.29926762541 -0.822231043188 1.0
		vertex 0.171010071663 -0.469846310393 2.0
		vertex 1.07156594925e-16 -0.875 1.0
	endloop
endfacet
facet normal 0.162894924622 -0.923823024519 0.346433634195
	outer loop
		vertex 1.07156594925e-16 -0.875 1.0
		vertex 0.171010071663 -0.469846310393 2.0
		vertex 6.12323399574e-17 -0.5 2.0
	endloop
endfacet
facet normal -0.162894924622 -0.923823024519 0.346433634195
	outer loop
		vertex 1.07156594925e-16 -0.875 1.0
		vertex 6.12323399574e-17 -0.5 2.0
		vertex -0.29926762541 -0.822231043188 1.0
	endloop
endfacet
facet normal -0.162894924622 -0.923823024519 0.346433634195
	outer loop
		vertex -0.29926762541 -0.822231043188 1.0
		vertex 6.12323399574e-17 -0.5 2.0
		vertex -0.171010071663 -0.469846310393 2.0
	endloop
endfacet
facet normal -0.469037241885 -0.812396333586 0.346433634195
	outer loop
		vertex -0.29926762541 -0.822231043188 1.0
		vertex -0.171010071663 -0.469846310393 2.0
		vertex -0.562439158476 -0.670288887729 1.0
	endloop
endfacet
facet normal -0.469037241885 -0.812396333586 0.346433634195
	outer loop
		vertex -0.562439158476 -0.670288887729 1.0
		vertex -0.171010071663 -0.469846310393 2.0
		vertex -0.321393804843 -0.383022221559 2.0
	endloop
endfacet
facet normal -0.718606745523 -0.60298265513 0.346433634195
	outer loop
		vertex -0.562439158476 -0.670288887729 1.0
		vertex -0.321393804843 -0.383022221559 2.0
		vertex -0.757772228311 -0.4375 1.0
	endloop
endfacet
facet normal -0.718606745523 -0.60298265513 0.346433634195
	outer loop
		vertex -0.757772228311 -0.4375 1.0
		vertex -0.321393804843 -0.383022221559 2.0
		vertex -0.433012701892 -0.25 2.0
	endloop
endfacet
facet normal -0.881501670145 -0.320840369389 0.346433634195
	outer loop
		vertex -0.757772228311 -0.4375 1.0
		vertex -0.433012701892 -0.25 2.0
		vertex -0.861706783886 -0.151942155459 1.0
	endloop
endfacet
facet normal -0.881501670145 -0.320840369389 0.346433634195
	outer loop
		vertex -0.861706783886 -0.151942155459 1.0
		vertex -0.433012701892 -0.25 2.0
		vertex -0.492403876506 -0.0868240888335 2.0
	endloop
endfacet
facet normal -0.938074483769 -3.42719861894e-16 0.346433634195
	outer loop
		vertex -0.861706783886 -0.151942155459 1.0
		vertex -0.492403876506 -0.0868240888335 2.0
		vertex -0.861706783886 0.151942155459 1.0
	endloop
endfacet
facet normal -0.938074483769 -2.99879879158e-16 0.346433634195
	outer loop
		vertex -0.861706783886 0.151942155459 1.0
		vertex -0.492403876506 -0.0868240888335 2.0
		vertex -0.492403876506 0.0868240888335 2.0
	endloop
endfacet
facet normal -0.881501670145 0.320840369389 0.346433634195
	outer loop
		vertex -0.861706783886 0.151942155459 1.0
		vertex -0.492403876506 0.0868240888335 2.0
		vertex -0.757772228311 0.4375 1.0
	endloop
endfacet
facet normal -0.881501670145 0.320840369389 0.346433634195
	outer loop
		vertex -0.757772228311 0.4375 1.0
		vertex -0.492403876506 0.0868240888335 2.0
		vertex -0.433012701892 0.25 2.0
	endloop
endfacet
facet normal -0.718606745523 0.60298265513 0.346433634195
	outer loop
		vertex -0.757772228311 0.4375 1.0
		vertex -0.433012701892 0.25 2.0
		vertex -0.562439158476 0.670288887729 1.0
	endloop
endfacet
facet normal -0.718606745523 0.60298265513 0.346433634195
	outer loop
		vertex -0.562439158476 0.670288887729 1.0
		vertex -0.433012701892 0.25 2.0
		vertex -0.321393804843 0.383022221559 2.0
	endloop
endfacet
facet normal -0.469037241885 0.812396333586 0.346433634195
	outer loop
		vertex -0.562439158476 0.670288887729 1.0
		vertex -0.321393804843 0.383022221559 2.0
		vertex -0.29926762541 0.822231043188 1.0
	endloop
endfacet
facet normal -0.469037241885 0.812396333586 0.346433634195
	outer loop
		vertex -0.29926762541 0.822231043188 1.0
		vertex -0.321393804843 0.383022221559 2.0
		vertex -0.171010071663 0.469846310393 2.0
	endloop
endfacet
facet normal -0.162894924622 0.923823024519 0.346433634195
	outer loop
		vertex -0.29926762541 0.822231043188 1.0
		vertex -0.171010071663 0.469846310393 2.0
		vertex 0.0 0.875 1.0
	endloop
endfacet
facet normal -0.162894924622 0.923823024519 0.346433634195
	outer loop
		vertex 0.0 0.875 1.0
		vertex -0.171010071663 0.469846310393 2.0
		vertex 0.0 0.5 2.0
	endloop
endfacet
facet normal 0.0 0.0 1.0
	outer loop
		vertex 0.0 0.5 2.0
		vertex 0.0 0.0 2.0
		vertex 0.171010071663 0.469846310393 2.0
	endloop
endfacet
facet normal 0.0 0.0 1.0
	outer loop
		vertex 0.171010071663 0.469846310393 2.0
		vertex 0.0 0.0 2.0
		vertex 0.321393804843 0.383022221559 2.0
	endloop
endfacet
facet normal 0.0 0.0 1.0
	outer loop
		vertex 0.321393804843 0.383022221559 2.0
		vertex 0.0 0.0 2.0
		vertex 0.433012701892 0.25 2.0
	endloop
endfacet
facet normal 0.0 0.0 1.0
	outer loop
		vertex 0.433012701892 0.25 2.0
		vertex 0.0 0.0 2.0
		vertex 0.492403876506 0.0868240888335 2.0
	endloop
endfacet
facet normal 0.0 0.0 1.0
	outer loop
		vertex 0.492403876506 0.0868240888335 2.0
		vertex 0.0 0.0 2.0
		vertex 0.492403876506 -0.0868240888335 2.0
	endloop
endfacet
facet normal 0.0 0.0 1.0
	outer loop
		vertex 0.492403876506 -0.0868240888335 2.0
		vertex 0.0 0.0 2.0
		vertex 0.433012701892 -0.25 2.0
	endloop
endfacet
facet normal 0.0 0.0 1.0
	outer loop
		vertex 0.433012701892 -0.25 2.0
		vertex 0.0 0.0 2.0
		vertex 0.321393804843 -0.383022221559 2.0
	endloop
endfacet
facet normal 0.0 0.0 1.0
	outer loop
		vertex 0.321393804843 -0.383022221559 2.0
		vertex 0.0 0.0 2.0
		vertex 0.171010071663 -0.469846310393 2.0
	endloop
endfacet
facet normal 0.0 0.0 1.0
	outer loop
		vertex 0.171010071663 -0.469846310393 2.0
		vertex 0.0 0.0 2.0
		vertex 6.12323399574e-17 -0.5 2.0
	endloop
endfacet
facet normal 0.0 0.0 1.0
	outer loop
		vertex 6.12323399574e-17 -0.5 2.0
		vertex 0.0 0.0 2.0
		vertex -0.171010071663 -0.469846310393 2.0
	endloop
endfacet
facet normal 0.0 -0.0 1.0
	outer loop
		vertex -0.171010071663 -0.469846310393 2.0
		vertex 0.0 0.0 2.0
		vertex -0.321393804843 -0.383022221559 2.0
	endloop
endfacet
facet normal 0.0 -0.0 1.0
	outer loop
		vertex -0.321393804843 -0.383022221559 2.0
		vertex 0.0 0.0 2.0
		vertex -0.433012701892 -0.25 2.0
	endloop
endfacet
facet normal 0.0 -0.0 1.0
	outer loop
		vertex -0.433012701892 -0.25 2.0
		vertex 0.0 0.0 2.0
		vertex -0.492403876506 -0.0868240888335 2.0
	endloop
endfacet
facet normal 0.0 -0.0 1.0
	outer loop
		vertex -0.492403876506 -0.0868240888335 2.0
		vertex 0.0 0.0 2.0
		vertex -0.492403876506 0.0868240888335 2.0
	endloop
endfacet
facet normal -0.0 0.0 1.0
	outer loop
		vertex -0.492403876506 0.0868240888335 2.0
		vertex 0.0 0.0 2.0
		vertex -0.433012701892 0.25 2.0
	endloop
endfacet
facet normal -0.0 0.0 1.0
	outer loop
		vertex -0.433012701892 0.25 2.0
		vertex 0.0 0.0 2.0
		vertex -0.321393804843 0.383022221559 2.0
	endloop
endfacet
facet normal -0.0 0.0 1.0
	outer loop
		vertex -0.321393804843 0.383022221559 2.0
		vertex 0.0 0.0 2.0
		vertex -0.171010071663 0.469846310393 2.0
	endloop
endfacet
facet normal -0.0 0.0 1.0
	outer loop
		vertex -0.171010071663 0.469846310393 2.0
		vertex 0.0 0.0 2.0
		vertex 0.0 0.5 2.0
	endloop
endfacet
endsolid mesh