solid mesh
facet normal 0.0 0.0 -1.0
	outer loop
		vertex 0.0 0.0 -2.0
		vertex 0.0 2.0 -2.0
		vertex 0.684040307999 1.87938523293 -2.0
	endloop
endfacet
facet normal 0.0 0.0 -1.0
	outer loop
		vertex 0.0 0.0 -2.0
		vertex 0.684040307999 1.87938523293 -2.0
		vertex 1.28557527065 1.53208887577 -2.0
	endloop
endfacet
facet normal 0.0 0.0 -1.0
	outer loop
		vertex 0.0 0.0 -2.0
		vertex 1.28557527065 1.53208887577 -2.0
		vertex 1.73205077648 1.0 -2.0
	endloop
endfacet
facet normal 0.0 0.0 -1.0
	outer loop
		vertex 0.0 0.0 -2.0
		vertex 1.73205077648 1.0 -2.0
		vertex 1.96961545944 0.347296357155 -2.0
	endloop
endfacet
facet normal 0.0 0.0 -1.0
	outer loop
		vertex 0.0 0.0 -2.0
		vertex 1.96961545944 0.347296357155 -2.0
		vertex 1.96961545944 -0.347296357155 -2.0
	endloop
endfacet
facet normal 0.0 0.0 -1.0
	outer loop
		vertex 0.0 0.0 -2.0
		vertex 1.96961545944 -0.347296357155 -2.0
		vertex 1.73205077648 -1.0 -2.0
	endloop
endfacet
facet normal 0.0 0.0 -1.0
	outer loop
		vertex 0.0 0.0 -2.0
		vertex 1.73205077648 -1.0 -2.0
		vertex 1.28557527065 -1.53208887577 -2.0
	endloop
endfacet
facet normal 0.0 0.0 -1.0
	outer loop
		vertex 0.0 0.0 -2.0
		vertex 1.28557527065 -1.53208887577 -2.0
		vertex 0.684040307999 -1.87938523293 -2.0
	endloop
endfacet
facet normal 0.0 0.0 -1.0
	outer loop
		vertex 0.0 0.0 -2.0
		vertex 0.684040307999 -1.87938523293 -2.0
		vertex 2.44929370517e-16 -2.0 -2.0
	endloop
endfacet
facet normal 0.0 -0.0 -1.0
	outer loop
		vertex 0.0 0.0 -2.0
		vertex 2.44929370517e-16 -2.0 -2.0
		vertex -0.684040307999 -1.87938523293 -2.0
	endloop
endfacet
facet normal 0.0 0.0 -1.0
	outer loop
		vertex 0.0 0.0 -2.0
		vertex -0.684040307999 -1.87938523293 -2.0
		vertex -1.28557527065 -1.53208887577 -2.0
	endloop
endfacet
facet normal 0.0 0.0 -1.0
	outer loop
		vertex 0.0 0.0 -2.0
		vertex -1.28557527065 -1.53208887577 -2.0
		vertex -1.73205077648 -1.0 -2.0
	endloop
endfacet
facet normal 0.0 0.0 -1.0
	outer loop
		vertex 0.0 0.0 -2.0
		vertex -1.73205077648 -1.0 -2.0
		vertex -1.96961545944 -0.347296357155 -2.0
	endloop
endfacet
facet normal -0.0 0.0 -1.0
	outer loop
		vertex 0.0 0.0 -2.0
		vertex -1.96961545944 -0.347296357155 -2.0
		vertex -1.96961545944 0.347296357155 -2.0
	endloop
endfacet
facet normal 0.0 0.0 -1.0
	outer loop
		vertex 0.0 0.0 -2.0
		vertex -1.96961545944 0.347296357155 -2.0
		vertex -1.73205077648 1.0 -2.0
	endloop
endfacet
facet normal 0.0 0.0 -1.0
	outer loop
		vertex 0.0 0.0 -2.0
		vertex -1.73205077648 1.0 -2.0
		vertex -1.28557527065 1.53208887577 -2.0
	endloop
endfacet
facet normal 0.0 0.0 -1.0
	outer loop
		vertex 0.0 0.0 -2.0
		vertex -1.28557527065 1.53208887577 -2.0
		vertex -0.684040307999 1.87938523293 -2.0
	endloop
endfacet
facet normal 0.0 0.0 -1.0
	outer loop
		vertex 0.0 0.0 -2.0
		vertex -0.684040307999 1.87938523293 -2.0
		vertex 0.0 2.0 -2.0
	endloop
endfacet
facet normal 0.162894931041 0.923823023527 0.346433633822
	outer loop
		vertex 0.0 2.0 -2.0
		vertex 0.0 1.625 -1.0
		vertex 0.684040307999 1.87938523293 -2.0
	endloop
endfacet
facet normal 0.162894865658 0.923823049363 0.34643359567
	outer loop
		vertex 0.684040307999 1.87938523293 -2.0
		vertex 0.0 1.625 -1.0
		vertex 0.555782735348 1.52700054646 -1.0
	endloop
endfacet
facet normal 0.469037230708 0.812396350392 0.346433609916
	outer loop
		vertex 0.684040307999 1.87938523293 -2.0
		vertex 0.555782735348 1.52700054646 -1.0
		vertex 1.28557527065 1.53208887577 -2.0
	endloop
endfacet
facet normal 0.469037208329 0.812396370234 0.346433593685
	outer loop
		vertex 1.28557527065 1.53208887577 -2.0
		vertex 0.555782735348 1.52700054646 -1.0
		vertex 1.04452991486 1.24482226372 -1.0
	endloop
endfacet
facet normal 0.718606803428 0.60298260434 0.346433602486
	outer loop
		vertex 1.28557527065 1.53208887577 -2.0
		vertex 1.04452991486 1.24482226372 -1.0
		vertex 1.73205077648 1.0 -2.0
	endloop
endfacet
facet normal 0.718606812068 0.602982588385 0.346433612332
	outer loop
		vertex 1.73205077648 1.0 -2.0
		vertex 1.04452991486 1.24482226372 -1.0
		vertex 1.40729129314 0.8125 -1.0
	endloop
endfacet
facet normal 0.881501688555 0.320840356058 0.346433599697
	outer loop
		vertex 1.73205077648 1.0 -2.0
		vertex 1.40729129314 0.8125 -1.0
		vertex 1.96961545944 0.347296357155 -2.0
	endloop
endfacet
facet normal 0.881501690933 0.320840340031 0.34643360849
	outer loop
		vertex 1.96961545944 0.347296357155 -2.0
		vertex 1.40729129314 0.8125 -1.0
		vertex 1.6003125906 0.282178282738 -1.0
	endloop
endfacet
facet normal 0.938074495517 0.0 0.346433602383
	outer loop
		vertex 1.96961545944 0.347296357155 -2.0
		vertex 1.6003125906 0.282178282738 -1.0
		vertex 1.96961545944 -0.347296357155 -2.0
	endloop
endfacet
facet normal 0.938074495517 0.0 0.346433602383
	outer loop
		vertex 1.96961545944 -0.347296357155 -2.0
		vertex 1.6003125906 0.282178282738 -1.0
		vertex 1.6003125906 -0.282178282738 -1.0
	endloop
endfacet
facet normal 0.881501685819 -0.320840355062 0.34643360758
	outer loop
		vertex 1.96961545944 -0.347296357155 -2.0
		vertex 1.6003125906 -0.282178282738 -1.0
		vertex 1.73205077648 -1.0 -2.0
	endloop
endfacet
facet normal 0.8815016943 -0.320840341257 0.346433598787
	outer loop
		vertex 1.73205077648 -1.0 -2.0
		vertex 1.6003125906 -0.282178282738 -1.0
		vertex 1.40729129314 -0.8125 -1.0
	endloop
endfacet
facet normal 0.71860680093 -0.602982602244 0.346433611314
	outer loop
		vertex 1.73205077648 -1.0 -2.0
		vertex 1.40729129314 -0.8125 -1.0
		vertex 1.28557527065 -1.53208887577 -2.0
	endloop
endfacet
facet normal 0.718606815142 -0.602982590965 0.346433601467
	outer loop
		vertex 1.28557527065 -1.53208887577 -2.0
		vertex 1.40729129314 -0.8125 -1.0
		vertex 1.04452991486 -1.24482226372 -1.0
	endloop
endfacet
facet normal 0.469037233395 -0.812396355046 0.346433595364
	outer loop
		vertex 1.28557527065 -1.53208887577 -2.0
		vertex 1.04452991486 -1.24482226372 -1.0
		vertex 0.684040307999 -1.87938523293 -2.0
	endloop
endfacet
facet normal 0.469037205022 -0.812396364506 0.346433611595
	outer loop
		vertex 0.684040307999 -1.87938523293 -2.0
		vertex 1.04452991486 -1.24482226372 -1.0
		vertex 0.555782735348 -1.52700054646 -1.0
	endloop
endfacet
facet normal 0.162894933235 -0.923823035967 0.346433599617
	outer loop
		vertex 0.684040307999 -1.87938523293 -2.0
		vertex 0.555782735348 -1.52700054646 -1.0
		vertex 2.44929370517e-16 -2.0 -2.0
	endloop
endfacet
facet normal 0.162894862958 -0.923823034051 0.346433637769
	outer loop
		vertex 2.44929370517e-16 -2.0 -2.0
		vertex 0.555782735348 -1.52700054646 -1.0
		vertex 1.99005110236e-16 -1.625 -1.0
	endloop
endfacet
facet normal -0.162894931041 -0.923823023527 0.346433633822
	outer loop
		vertex 2.44929370517e-16 -2.0 -2.0
		vertex 1.99005110236e-16 -1.625 -1.0
		vertex -0.684040307999 -1.87938523293 -2.0
	endloop
endfacet
facet normal -0.162894865658 -0.923823049363 0.34643359567
	outer loop
		vertex -0.684040307999 -1.87938523293 -2.0
		vertex 1.99005110236e-16 -1.625 -1.0
		vertex -0.555782735348 -1.52700054646 -1.0
	endloop
endfacet
facet normal -0.469037230708 -0.812396350392 0.346433609916
	outer loop
		vertex -0.684040307999 -1.87938523293 -2.0
		vertex -0.555782735348 -1.52700054646 -1.0
		vertex -1.28557527065 -1.53208887577 -2.0
	endloop
endfacet
facet normal -0.469037208329 -0.812396370234 0.346433593685
	outer loop
		vertex -1.28557527065 -1.53208887577 -2.0
		vertex -0.555782735348 -1.52700054646 -1.0
		vertex -1.04452991486 -1.24482226372 -1.0
	endloop
endfacet
facet normal -0.718606803428 -0.60298260434 0.346433602486
	outer loop
		vertex -1.28557527065 -1.53208887577 -2.0
		vertex -1.04452991486 -1.24482226372 -1.0
		vertex -1.73205077648 -1.0 -2.0
	endloop
endfacet
facet normal -0.718606812068 -0.602982588385 0.346433612332
	outer loop
		vertex -1.73205077648 -1.0 -2.0
		vertex -1.04452991486 -1.24482226372 -1.0
		vertex -1.40729129314 -0.8125 -1.0
	endloop
endfacet
facet normal -0.881501688555 -0.320840356058 0.346433599697
	outer loop
		vertex -1.73205077648 -1.0 -2.0
		vertex -1.40729129314 -0.8125 -1.0
		vertex -1.96961545944 -0.347296357155 -2.0
	endloop
endfacet
facet normal -0.881501690933 -0.320840340031 0.34643360849
	outer loop
		vertex -1.96961545944 -0.347296357155 -2.0
		vertex -1.40729129314 -0.8125 -1.0
		vertex -1.6003125906 -0.282178282738 -1.0
	endloop
endfacet
facet normal -0.938074495517 0.0 0.346433602383
	outer loop
		vertex -1.96961545944 -0.347296357155 -2.0
		vertex -1.6003125906 -0.282178282738 -1.0
		vertex -1.96961545944 0.347296357155 -2.0
	endloop
endfacet
facet normal -0.938074495517 0.0 0.346433602383
	outer loop
		vertex -1.96961545944 0.347296357155 -2.0
		vertex -1.6003125906 -0.282178282738 -1.0
		vertex -1.6003125906 0.282178282738 -1.0
	endloop
endfacet
facet normal -0.881501685819 0.320840355062 0.34643360758
	outer loop
		vertex -1.96961545944 0.347296357155 -2.0
		vertex -1.6003125906 0.282178282738 -1.0
		vertex -1.73205077648 1.0 -2.0
	endloop
endfacet
facet normal -0.8815016943 0.320840341257 0.346433598787
	outer loop
		vertex -1.73205077648 1.0 -2.0
		vertex -1.6003125906 0.282178282738 -1.0
		vertex -1.40729129314 0.8125 -1.0
	endloop
endfacet
facet normal -0.71860680093 0.602982602244 0.346433611314
	outer loop
		vertex -1.73205077648 1.0 -2.0
		vertex -1.40729129314 0.8125 -1.0
		vertex -1.28557527065 1.53208887577 -2.0
	endloop
endfacet
facet normal -0.718606815142 0.602982590965 0.346433601467
	outer loop
		vertex -1.28557527065 1.53208887577 -2.0
		vertex -1.40729129314 0.8125 -1.0
		vertex -1.04452991486 1.24482226372 -1.0
	endloop
endfacet
facet normal -0.469037233395 0.812396355046 0.346433595364
	outer loop
		vertex -1.28557527065 1.53208887577 -2.0
		vertex -1.04452991486 1.24482226372 -1.0
		vertex -0.684040307999 1.87938523293 -2.0
	endloop
endfacet
facet normal -0.469037205022 0.812396364506 0.346433611595
	outer loop
		vertex -0.684040307999 1.87938523293 -2.0
		vertex -1.04452991486 1.24482226372 -1.0
		vertex -0.555782735348 1.52700054646 -1.0
	endloop
endfacet
facet normal -0.162894933235 0.923823035967 0.346433599617
	outer loop
		vertex -0.684040307999 1.87938523293 -2.0
		vertex -0.555782735348 1.52700054646 -1.0
		vertex 0.0 2.0 -2.0
	endloop
endfacet
facet normal -0.162894862958 0.923823034051 0.346433637769
	outer loop
		vertex 0.0 2.0 -2.0
		vertex -0.555782735348 1.52700054646 -1.0
		vertex 0.0 1.625 -1.0
	endloop
endfacet
facet normal 0.162894862958 0.923823034051 0.346433637769
	outer loop
		vertex 0.0 1.625 -1.0
		vertex 0.0 1.25 0.0
		vertex 0.555782735348 1.52700054646 -1.0
	endloop
endfacet
facet normal 0.162894989518 0.92382298994 0.34643369589
	outer loop
		vertex 0.555782735348 1.52700054646 -1.0
		vertex 0.0 1.25 0.0
		vertex 0.427525192499 1.17461574078 0.0
	endloop
endfacet
facet normal 0.469037191557 0.812396341184 0.346433684516
	outer loop
		vertex 0.555782735348 1.52700054646 -1.0
		vertex 0.427525192499 1.17461574078 0.0
		vertex 1.04452991486 1.24482226372 -1.0
	endloop
endfacet
facet normal 0.469037230578 0.812396309341 0.346433706357
	outer loop
		vertex 1.04452991486 1.24482226372 -1.0
		vertex 0.427525192499 1.17461574078 0.0
		vertex 0.803484499454 0.957555532455 0.0
	endloop
endfacet
facet normal 0.718606786584 0.602982567002 0.346433702413
	outer loop
		vertex 1.04452991486 1.24482226372 -1.0
		vertex 0.803484499454 0.957555532455 0.0
		vertex 1.40729129314 0.8125 -1.0
	endloop
endfacet
facet normal 0.71860666432 0.602982772228 0.34643359882
	outer loop
		vertex 1.40729129314 0.8125 -1.0
		vertex 0.803484499454 0.957555532455 0.0
		vertex 1.08253180981 0.625 0.0
	endloop
endfacet
facet normal 0.8815016943 0.320840341257 0.346433598787
	outer loop
		vertex 1.40729129314 0.8125 -1.0
		vertex 1.08253180981 0.625 0.0
		vertex 1.6003125906 0.282178282738 -1.0
	endloop
endfacet
facet normal 0.881501697026 0.320840326942 0.346433605107
	outer loop
		vertex 1.6003125906 0.282178282738 -1.0
		vertex 1.08253180981 0.625 0.0
		vertex 1.23100972176 0.217060223222 0.0
	endloop
endfacet
facet normal 0.938074495517 0.0 0.346433602383
	outer loop
		vertex 1.6003125906 0.282178282738 -1.0
		vertex 1.23100972176 0.217060223222 0.0
		vertex 1.6003125906 -0.282178282738 -1.0
	endloop
endfacet
facet normal 0.938074495517 0.0 0.346433602383
	outer loop
		vertex 1.6003125906 -0.282178282738 -1.0
		vertex 1.23100972176 0.217060223222 0.0
		vertex 1.23100972176 -0.217060223222 0.0
	endloop
endfacet
facet normal 0.881501692393 -0.320840340563 0.346433604283
	outer loop
		vertex 1.6003125906 -0.282178282738 -1.0
		vertex 1.23100972176 -0.217060223222 0.0
		vertex 1.40729129314 -0.8125 -1.0
	endloop
endfacet
facet normal 0.881501699505 -0.320840327844 0.346433597963
	outer loop
		vertex 1.40729129314 -0.8125 -1.0
		vertex 1.23100972176 -0.217060223222 0.0
		vertex 1.08253180981 -0.625 0.0
	endloop
endfacet
facet normal 0.718606812068 -0.602982588385 0.346433612332
	outer loop
		vertex 1.40729129314 -0.8125 -1.0
		vertex 1.08253180981 -0.625 0.0
		vertex 1.04452991486 -1.24482226372 -1.0
	endloop
endfacet
facet normal 0.718606631191 -0.602982744429 0.346433715925
	outer loop
		vertex 1.04452991486 -1.24482226372 -1.0
		vertex 1.08253180981 -0.625 0.0
		vertex 0.803484499454 -0.957555532455 0.0
	endloop
endfacet
facet normal 0.46903718805 -0.81239633511 0.346433703509
	outer loop
		vertex 1.04452991486 -1.24482226372 -1.0
		vertex 0.803484499454 -0.957555532455 0.0
		vertex 0.555782735348 -1.52700054646 -1.0
	endloop
endfacet
facet normal 0.469037235137 -0.812396317237 0.346433681668
	outer loop
		vertex 0.555782735348 -1.52700054646 -1.0
		vertex 0.803484499454 -0.957555532455 0.0
		vertex 0.427525192499 -1.17461574078 0.0
	endloop
endfacet
facet normal 0.162894859717 -0.92382301567 0.346433688309
	outer loop
		vertex 0.555782735348 -1.52700054646 -1.0
		vertex 0.427525192499 -1.17461574078 0.0
		vertex 1.99005110236e-16 -1.625 -1.0
	endloop
endfacet
facet normal 0.162894993731 -0.923823013835 0.346433630188
	outer loop
		vertex 1.99005110236e-16 -1.625 -1.0
		vertex 0.427525192499 -1.17461574078 0.0
		vertex 1.53080849956e-16 -1.25 0.0
	endloop
endfacet
facet normal -0.162894862958 -0.923823034051 0.346433637769
	outer loop
		vertex 1.99005110236e-16 -1.625 -1.0
		vertex 1.53080849956e-16 -1.25 0.0
		vertex -0.555782735348 -1.52700054646 -1.0
	endloop
endfacet
facet normal -0.162894989518 -0.92382298994 0.34643369589
	outer loop
		vertex -0.555782735348 -1.52700054646 -1.0
		vertex 1.53080849956e-16 -1.25 0.0
		vertex -0.427525192499 -1.17461574078 0.0
	endloop
endfacet
facet normal -0.469037191557 -0.812396341184 0.346433684516
	outer loop
		vertex -0.555782735348 -1.52700054646 -1.0
		vertex -0.427525192499 -1.17461574078 0.0
		vertex -1.04452991486 -1.24482226372 -1.0
	endloop
endfacet
facet normal -0.469037230578 -0.812396309341 0.346433706357
	outer loop
		vertex -1.04452991486 -1.24482226372 -1.0
		vertex -0.427525192499 -1.17461574078 0.0
		vertex -0.803484499454 -0.957555532455 0.0
	endloop
endfacet
facet normal -0.718606786584 -0.602982567002 0.346433702413
	outer loop
		vertex -1.04452991486 -1.24482226372 -1.0
		vertex -0.803484499454 -0.957555532455 0.0
		vertex -1.40729129314 -0.8125 -1.0
	endloop
endfacet
facet normal -0.71860666432 -0.602982772228 0.34643359882
	outer loop
		vertex -1.40729129314 -0.8125 -1.0
		vertex -0.803484499454 -0.957555532455 0.0
		vertex -1.08253180981 -0.625 0.0
	endloop
endfacet
facet normal -0.8815016943 -0.320840341257 0.346433598787
	outer loop
		vertex -1.40729129314 -0.8125 -1.0
		vertex -1.08253180981 -0.625 0.0
		vertex -1.6003125906 -0.282178282738 -1.0
	endloop
endfacet
facet normal -0.881501697026 -0.320840326942 0.346433605107
	outer loop
		vertex -1.6003125906 -0.282178282738 -1.0
		vertex -1.08253180981 -0.625 0.0
		vertex -1.23100972176 -0.217060223222 0.0
	endloop
endfacet
facet normal -0.938074495517 0.0 0.346433602383
	outer loop
		vertex -1.6003125906 -0.282178282738 -1.0
		vertex -1.23100972176 -0.217060223222 0.0
		vertex -1.6003125906 0.282178282738 -1.0
	endloop
endfacet
facet normal -0.938074495517 0.0 0.346433602383
	outer loop
		vertex -1.6003125906 0.282178282738 -1.0
		vertex -1.23100972176 -0.217060223222 0.0
		vertex -1.23100972176 0.217060223222 0.0
	endloop
endfacet
facet normal -0.881501692393 0.320840340563 0.346433604283
	outer loop
		vertex -1.6003125906 0.282178282738 -1.0
		vertex -1.23100972176 0.217060223222 0.0
		vertex -1.40729129314 0.8125 -1.0
	endloop
endfacet
facet normal -0.881501699505 0.320840327844 0.346433597963
	outer loop
		vertex -1.40729129314 0.8125 -1.0
		vertex -1.23100972176 0.217060223222 0.0
		vertex -1.08253180981 0.625 0.0
	endloop
endfacet
facet normal -0.718606812068 0.602982588385 0.346433612332
	outer loop
		vertex -1.40729129314 0.8125 -1.0
		vertex -1.08253180981 0.625 0.0
		vertex -1.04452991486 1.24482226372 -1.0
	endloop
endfacet
facet normal -0.718606631191 0.602982744429 0.346433715925
	outer loop
		vertex -1.04452991486 1.24482226372 -1.0
		vertex -1.08253180981 0.625 0.0
		vertex -0.803484499454 0.957555532455 0.0
	endloop
endfacet
facet normal -0.46903718805 0.81239633511 0.346433703509
	outer loop
		vertex -1.04452991486 1.24482226372 -1.0
		vertex -0.803484499454 0.957555532455 0.0
		vertex -0.555782735348 1.52700054646 -1.0
	endloop
endfacet
facet normal -0.469037235137 0.812396317237 0.346433681668
	outer loop
		vertex -0.555782735348 1.52700054646 -1.0
		vertex -0.803484499454 0.957555532455 0.0
		vertex -0.427525192499 1.17461574078 0.0
	endloop
endfacet
facet normal -0.162894859717 0.92382301567 0.346433688309
	outer loop
		vertex -0.555782735348 1.52700054646 -1.0
		vertex -0.427525192499 1.17461574078 0.0
		vertex 0.0 1.625 -1.0
	endloop
endfacet
facet normal -0.162894993731 0.923823013835 0.346433630188
	outer loop
		vertex 0.0 1.625 -1.0
		vertex -0.427525192499 1.17461574078 0.0
		vertex 0.0 1.25 0.0
	endloop
endfacet
facet normal 0.162894993731 0.923823013835 0.346433630188
	outer loop
		vertex 0.0 1.25 0.0
		vertex 0.0 0.875 1.0
		vertex 0.427525192499 1.17461574078 0.0
	endloop
endfacet
facet normal 0.162894896626 0.923823043224 0.346433597479
	outer loop
		vertex 0.427525192499 1.17461574078 0.0
		vertex 0.0 0.875 1.0
		vertex 0.299267619848 0.822231054306 1.0
	endloop
endfacet
facet normal 0.469037248602 0.81239634056 0.346433608746
	outer loop
		vertex 0.427525192499 1.17461574078 0.0
		vertex 0.299267619848 0.822231054306 1.0
		vertex 0.803484499454 0.957555532455 0.0
	endloop
endfacet
facet normal 0.469037340233 0.812396271916 0.346433645659
	outer loop
		vertex 0.803484499454 0.957555532455 0.0
		vertex 0.299267619848 0.822231054306 1.0
		vertex 0.562439143658 0.670288860798 1.0
	endloop
endfacet
facet normal 0.718606650801 0.602982760884 0.346433646606
	outer loop
		vertex 0.803484499454 0.957555532455 0.0
		vertex 0.562439143658 0.670288860798 1.0
		vertex 1.08253180981 0.625 0.0
	endloop
endfacet
facet normal 0.718606707657 0.602982673873 0.346433680117
	outer loop
		vertex 1.08253180981 0.625 0.0
		vertex 0.562439143658 0.670288860798 1.0
		vertex 0.75777220726 0.4375 1.0
	endloop
endfacet
facet normal 0.881501667415 0.320840316164 0.346433690435
	outer loop
		vertex 1.08253180981 0.625 0.0
		vertex 0.75777220726 0.4375 1.0
		vertex 1.23100972176 0.217060223222 0.0
	endloop
endfacet
facet normal 0.881501637498 0.320840444101 0.346433648074
	outer loop
		vertex 1.23100972176 0.217060223222 0.0
		vertex 0.75777220726 0.4375 1.0
		vertex 0.861706793308 0.151942148805 1.0
	endloop
endfacet
facet normal 0.938074477346 0.0 0.346433651586
	outer loop
		vertex 1.23100972176 0.217060223222 0.0
		vertex 0.861706793308 0.151942148805 1.0
		vertex 1.23100972176 -0.217060223222 0.0
	endloop
endfacet
facet normal 0.938074477346 0.0 0.346433651586
	outer loop
		vertex 1.23100972176 -0.217060223222 0.0
		vertex 0.861706793308 0.151942148805 1.0
		vertex 0.861706793308 -0.151942148805 1.0
	endloop
endfacet
facet normal 0.881501679521 -0.320840320571 0.34643365555
	outer loop
		vertex 1.23100972176 -0.217060223222 0.0
		vertex 0.861706793308 -0.151942148805 1.0
		vertex 1.08253180981 -0.625 0.0
	endloop
endfacet
facet normal 0.881501620203 -0.320840437806 0.34643369791
	outer loop
		vertex 1.08253180981 -0.625 0.0
		vertex 0.861706793308 -0.151942148805 1.0
		vertex 0.75777220726 -0.4375 1.0
	endloop
endfacet
facet normal 0.718606642994 -0.602982754333 0.346433674204
	outer loop
		vertex 1.08253180981 -0.625 0.0
		vertex 0.75777220726 -0.4375 1.0
		vertex 0.803484499454 -0.957555532455 0.0
	endloop
endfacet
facet normal 0.71860671881 -0.602982683232 0.346433640693
	outer loop
		vertex 0.803484499454 -0.957555532455 0.0
		vertex 0.75777220726 -0.4375 1.0
		vertex 0.562439143658 -0.670288860798 1.0
	endloop
endfacet
facet normal 0.469037242989 -0.812396330837 0.346433639145
	outer loop
		vertex 0.803484499454 -0.957555532455 0.0
		vertex 0.562439143658 -0.670288860798 1.0
		vertex 0.427525192499 -1.17461574078 0.0
	endloop
endfacet
facet normal 0.469037348252 -0.812396285805 0.346433602232
	outer loop
		vertex 0.427525192499 -1.17461574078 0.0
		vertex 0.562439143658 -0.670288860798 1.0
		vertex 0.299267619848 -0.822231054306 1.0
	endloop
endfacet
facet normal 0.162894995458 -0.923823023632 0.346433603251
	outer loop
		vertex 0.427525192499 -1.17461574078 0.0
		vertex 0.299267619848 -0.822231054306 1.0
		vertex 1.53080849956e-16 -1.25 0.0
	endloop
endfacet
facet normal 0.162894894158 -0.923823029228 0.346433635961
	outer loop
		vertex 1.53080849956e-16 -1.25 0.0
		vertex 0.299267619848 -0.822231054306 1.0
		vertex 1.07156596292e-16 -0.875 1.0
	endloop
endfacet
facet normal -0.162894993731 -0.923823013835 0.346433630188
	outer loop
		vertex 1.53080849956e-16 -1.25 0.0
		vertex 1.07156596292e-16 -0.875 1.0
		vertex -0.427525192499 -1.17461574078 0.0
	endloop
endfacet
facet normal -0.162894896626 -0.923823043224 0.346433597479
	outer loop
		vertex -0.427525192499 -1.17461574078 0.0
		vertex 1.07156596292e-16 -0.875 1.0
		vertex -0.299267619848 -0.822231054306 1.0
	endloop
endfacet
facet normal -0.469037248602 -0.81239634056 0.346433608746
	outer loop
		vertex -0.427525192499 -1.17461574078 0.0
		vertex -0.299267619848 -0.822231054306 1.0
		vertex -0.803484499454 -0.957555532455 0.0
	endloop
endfacet
facet normal -0.469037340233 -0.812396271916 0.346433645659
	outer loop
		vertex -0.803484499454 -0.957555532455 0.0
		vertex -0.299267619848 -0.822231054306 1.0
		vertex -0.562439143658 -0.670288860798 1.0
	endloop
endfacet
facet normal -0.718606650801 -0.602982760884 0.346433646606
	outer loop
		vertex -0.803484499454 -0.957555532455 0.0
		vertex -0.562439143658 -0.670288860798 1.0
		vertex -1.08253180981 -0.625 0.0
	endloop
endfacet
facet normal -0.718606707657 -0.602982673873 0.346433680117
	outer loop
		vertex -1.08253180981 -0.625 0.0
		vertex -0.562439143658 -0.670288860798 1.0
		vertex -0.75777220726 -0.4375 1.0
	endloop
endfacet
facet normal -0.881501667415 -0.320840316164 0.346433690435
	outer loop
		vertex -1.08253180981 -0.625 0.0
		vertex -0.75777220726 -0.4375 1.0
		vertex -1.23100972176 -0.217060223222 0.0
	endloop
endfacet
facet normal -0.881501637498 -0.320840444101 0.346433648074
	outer loop
		vertex -1.23100972176 -0.217060223222 0.0
		vertex -0.75777220726 -0.4375 1.0
		vertex -0.861706793308 -0.151942148805 1.0
	endloop
endfacet
facet normal -0.938074477346 0.0 0.346433651586
	outer loop
		vertex -1.23100972176 -0.217060223222 0.0
		vertex -0.861706793308 -0.151942148805 1.0
		vertex -1.23100972176 0.217060223222 0.0
	endloop
endfacet
facet normal -0.938074477346 0.0 0.346433651586
	outer loop
		vertex -1.23100972176 0.217060223222 0.0
		vertex -0.861706793308 -0.151942148805 1.0
		vertex -0.861706793308 0.151942148805 1.0
	endloop
endfacet
facet normal -0.881501679521 0.320840320571 0.34643365555
	outer loop
		vertex -1.23100972176 0.217060223222 0.0
		vertex -0.861706793308 0.151942148805 1.0
		vertex -1.08253180981 0.625 0.0
	endloop
endfacet
facet normal -0.881501620203 0.320840437806 0.34643369791
	outer loop
		vertex -1.08253180981 0.625 0.0
		vertex -0.861706793308 0.151942148805 1.0
		vertex -0.75777220726 0.4375 1.0
	endloop
endfacet
facet normal -0.718606642994 0.602982754333 0.346433674204
	outer loop
		vertex -1.08253180981 0.625 0.0
		vertex -0.75777220726 0.4375 1.0
		vertex -0.803484499454 0.957555532455 0.0
	endloop
endfacet
facet normal -0.71860671881 0.602982683232 0.346433640693
	outer loop
		vertex -0.803484499454 0.957555532455 0.0
		vertex -0.75777220726 0.4375 1.0
		vertex -0.562439143658 0.670288860798 1.0
	endloop
endfacet
facet normal -0.469037242989 0.812396330837 0.346433639145
	outer loop
		vertex -0.803484499454 0.957555532455 0.0
		vertex -0.562439143658 0.670288860798 1.0
		vertex -0.427525192499 1.17461574078 0.0
	endloop
endfacet
facet normal -0.469037348252 0.812396285805 0.346433602232
	outer loop
		vertex -0.427525192499 1.17461574078 0.0
		vertex -0.562439143658 0.670288860798 1.0
		vertex -0.299267619848 0.822231054306 1.0
	endloop
endfacet
facet normal -0.162894995458 0.923823023632 0.346433603251
	outer loop
		vertex -0.427525192499 1.17461574078 0.0
		vertex -0.299267619848 0.822231054306 1.0
		vertex 0.0 1.25 0.0
	endloop
endfacet
facet normal -0.162894894158 0.923823029228 0.346433635961
	outer loop
		vertex 0.0 1.25 0.0
		vertex -0.299267619848 0.822231054306 1.0
		vertex 0.0 0.875 1.0
	endloop
endfacet
facet normal 0.162894894158 0.923823029228 0.346433635961
	outer loop
		vertex 0.0 0.875 1.0
		vertex 0.0 0.5 2.0
		vertex 0.299267619848 0.822231054306 1.0
	endloop
endfacet
facet normal 0.162894930401 0.923823019898 0.3464336438
	outer loop
		vertex 0.299267619848 0.822231054306 1.0
		vertex 0.0 0.5 2.0
		vertex 0.171010077 0.469846308231 2.0
	endloop
endfacet
facet normal 0.469037342655 0.812396276111 0.346433632542
	outer loop
		vertex 0.299267619848 0.822231054306 1.0
		vertex 0.171010077 0.469846308231 2.0
		vertex 0.562439143658 0.670288860798 1.0
	endloop
endfacet
facet normal 0.469037231732 0.812396352166 0.346433604369
	outer loop
		vertex 0.562439143658 0.670288860798 1.0
		vertex 0.171010077 0.469846308231 2.0
		vertex 0.321393817663 0.383022218943 2.0
	endloop
endfacet
facet normal 0.718606728615 0.60298269146 0.346433606033
	outer loop
		vertex 0.562439143658 0.670288860798 1.0
		vertex 0.321393817663 0.383022218943 2.0
		vertex 0.75777220726 0.4375 1.0
	endloop
endfacet
facet normal 0.718606795599 0.602982597771 0.346433630159
	outer loop
		vertex 0.75777220726 0.4375 1.0
		vertex 0.321393817663 0.383022218943 2.0
		vertex 0.43301269412 0.25 2.0
	endloop
endfacet
facet normal 0.881501644271 0.320840446566 0.346433628556
	outer loop
		vertex 0.75777220726 0.4375 1.0
		vertex 0.43301269412 0.25 2.0
		vertex 0.861706793308 0.151942148805 1.0
	endloop
endfacet
facet normal 0.881501671234 0.320840349754 0.346433649609
	outer loop
		vertex 0.861706793308 0.151942148805 1.0
		vertex 0.43301269412 0.25 2.0
		vertex 0.492403864861 0.0868240892887 2.0
	endloop
endfacet
facet normal 0.938074477346 0.0 0.346433651586
	outer loop
		vertex 0.861706793308 0.151942148805 1.0
		vertex 0.492403864861 0.0868240892887 2.0
		vertex 0.861706793308 -0.151942148805 1.0
	endloop
endfacet
facet normal 0.938074477346 0.0 0.346433651586
	outer loop
		vertex 0.861706793308 -0.151942148805 1.0
		vertex 0.492403864861 0.0868240892887 2.0
		vertex 0.492403864861 -0.0868240892887 2.0
	endloop
endfacet
facet normal 0.881501638958 -0.320840444632 0.346433643867
	outer loop
		vertex 0.861706793308 -0.151942148805 1.0
		vertex 0.492403864861 -0.0868240892887 2.0
		vertex 0.75777220726 -0.4375 1.0
	endloop
endfacet
facet normal 0.881501680533 -0.320840353138 0.346433622815
	outer loop
		vertex 0.75777220726 -0.4375 1.0
		vertex 0.492403864861 -0.0868240892887 2.0
		vertex 0.43301269412 -0.25 2.0
	endloop
endfacet
facet normal 0.718606723651 -0.602982687294 0.34643362358
	outer loop
		vertex 0.75777220726 -0.4375 1.0
		vertex 0.43301269412 -0.25 2.0
		vertex 0.562439143658 -0.670288860798 1.0
	endloop
endfacet
facet normal 0.718606804285 -0.60298260506 0.346433599453
	outer loop
		vertex 0.562439143658 -0.670288860798 1.0
		vertex 0.43301269412 -0.25 2.0
		vertex 0.321393817663 -0.383022218943 2.0
	endloop
endfacet
facet normal 0.469037346439 -0.812396282664 0.346433612052
	outer loop
		vertex 0.562439143658 -0.670288860798 1.0
		vertex 0.321393817663 -0.383022218943 2.0
		vertex 0.299267619848 -0.822231054306 1.0
	endloop
endfacet
facet normal 0.469037225111 -0.812396340698 0.346433640226
	outer loop
		vertex 0.299267619848 -0.822231054306 1.0
		vertex 0.321393817663 -0.383022218943 2.0
		vertex 0.171010077 -0.469846308231 2.0
	endloop
endfacet
facet normal 0.162894893793 -0.923823027155 0.346433641662
	outer loop
		vertex 0.299267619848 -0.822231054306 1.0
		vertex 0.171010077 -0.469846308231 2.0
		vertex 1.07156596292e-16 -0.875 1.0
	endloop
endfacet
facet normal 0.162894931041 -0.923823023527 0.346433633822
	outer loop
		vertex 1.07156596292e-16 -0.875 1.0
		vertex 0.171010077 -0.469846308231 2.0
		vertex 6.12323426293e-17 -0.5 2.0
	endloop
endfacet
facet normal -0.162894894158 -0.923823029228 0.346433635961
	outer loop
		vertex 1.07156596292e-16 -0.875 1.0
		vertex 6.12323426293e-17 -0.5 2.0
		vertex -0.299267619848 -0.822231054306 1.0
	endloop
endfacet
facet normal -0.162894930401 -0.923823019898 0.3464336438
	outer loop
		vertex -0.299267619848 -0.822231054306 1.0
		vertex 6.12323426293e-17 -0.5 2.0
		vertex -0.171010077 -0.469846308231 2.0
	endloop
endfacet
facet normal -0.469037342655 -0.812396276111 0.346433632542
	outer loop
		vertex -0.299267619848 -0.822231054306 1.0
		vertex -0.171010077 -0.469846308231 2.0
		vertex -0.562439143658 -0.670288860798 1.0
	endloop
endfacet
facet normal -0.469037231732 -0.812396352166 0.346433604369
	outer loop
		vertex -0.562439143658 -0.670288860798 1.0
		vertex -0.171010077 -0.469846308231 2.0
		vertex -0.321393817663 -0.383022218943 2.0
	endloop
endfacet
facet normal -0.718606728615 -0.60298269146 0.346433606033
	outer loop
		vertex -0.562439143658 -0.670288860798 1.0
		vertex -0.321393817663 -0.383022218943 2.0
		vertex -0.75777220726 -0.4375 1.0
	endloop
endfacet
facet normal -0.718606795599 -0.602982597771 0.346433630159
	outer loop
		vertex -0.75777220726 -0.4375 1.0
		vertex -0.321393817663 -0.383022218943 2.0
		vertex -0.43301269412 -0.25 2.0
	endloop
endfacet
facet normal -0.881501644271 -0.320840446566 0.346433628556
	outer loop
		vertex -0.75777220726 -0.4375 1.0
		vertex -0.43301269412 -0.25 2.0
		vertex -0.861706793308 -0.151942148805 1.0
	endloop
endfacet
facet normal -0.881501671234 -0.320840349754 0.346433649609
	outer loop
		vertex -0.861706793308 -0.151942148805 1.0
		vertex -0.43301269412 -0.25 2.0
		vertex -0.492403864861 -0.0868240892887 2.0
	endloop
endfacet
facet normal -0.938074477346 0.0 0.346433651586
	outer loop
		vertex -0.861706793308 -0.151942148805 1.0
		vertex -0.492403864861 -0.0868240892887 2.0
		vertex -0.861706793308 0.151942148805 1.0
	endloop
endfacet
facet normal -0.938074477346 0.0 0.346433651586
	outer loop
		vertex -0.861706793308 0.151942148805 1.0
		vertex -0.492403864861 -0.0868240892887 2.0
		vertex -0.492403864861 0.0868240892887 2.0
	endloop
endfacet
facet normal -0.881501638958 0.320840444632 0.346433643867
	outer loop
		vertex -0.861706793308 0.151942148805 1.0
		vertex -0.492403864861 0.0868240892887 2.0
		vertex -0.75777220726 0.4375 1.0
	endloop
endfacet
facet normal -0.881501680533 0.320840353138 0.346433622815
	outer loop
		vertex -0.75777220726 0.4375 1.0
		vertex -0.492403864861 0.0868240892887 2.0
		vertex -0.43301269412 0.25 2.0
	endloop
endfacet
facet normal -0.718606723651 0.602982687294 0.34643362358
	outer loop
		vertex -0.75777220726 0.4375 1.0
		vertex -0.43301269412 0.25 2.0
		vertex -0.562439143658 0.670288860798 1.0
	endloop
endfacet
facet normal -0.718606804285 0.60298260506 0.346433599453
	outer loop
		vertex -0.562439143658 0.670288860798 1.0
		vertex -0.43301269412 0.25 2.0
		vertex -0.321393817663 0.383022218943 2.0
	endloop
endfacet
facet normal -0.469037346439 0.812396282664 0.346433612052
	outer loop
		vertex -0.562439143658 0.670288860798 1.0
		vertex -0.321393817663 0.383022218943 2.0
		vertex -0.299267619848 0.822231054306 1.0
	endloop
endfacet
facet normal -0.469037225111 0.812396340698 0.346433640226
	outer loop
		vertex -0.299267619848 0.822231054306 1.0
		vertex -0.321393817663 0.383022218943 2.0
		vertex -0.171010077 0.469846308231 2.0
	endloop
endfacet
facet normal -0.162894893793 0.923823027155 0.346433641662
	outer loop
		vertex -0.299267619848 0.822231054306 1.0
		vertex -0.171010077 0.469846308231 2.0
		vertex 0.0 0.875 1.0
	endloop
endfacet
facet normal -0.162894931041 0.923823023527 0.346433633822
	outer loop
		vertex 0.0 0.875 1.0
		vertex -0.171010077 0.469846308231 2.0
		vertex 0.0 0.5 2.0
	endloop
endfacet
facet normal 0.0 0.0 1.0
	outer loop
		vertex 0.0 0.5 2.0
		vertex 0.0 0.0 2.0
		vertex 0.171010077 0.469846308231 2.0
	endloop
endfacet
facet normal 0.0 0.0 1.0
	outer loop
		vertex 0.171010077 0.469846308231 2.0
		vertex 0.0 0.0 2.0
		vertex 0.321393817663 0.383022218943 2.0
	endloop
endfacet
facet normal 0.0 0.0 1.0
	outer loop
		vertex 0.321393817663 0.383022218943 2.0
		vertex 0.0 0.0 2.0
		vertex 0.43301269412 0.25 2.0
	endloop
endfacet
facet normal 0.0 0.0 1.0
	outer loop
		vertex 0.43301269412 0.25 2.0
		vertex 0.0 0.0 2.0
		vertex 0.492403864861 0.0868240892887 2.0
	endloop
endfacet
facet normal 0.0 0.0 1.0
	outer loop
		vertex 0.492403864861 0.0868240892887 2.0
		vertex 0.0 0.0 2.0
		vertex 0.492403864861 -0.0868240892887 2.0
	endloop
endfacet
facet normal 0.0 0.0 1.0
	outer loop
		vertex 0.492403864861 -0.0868240892887 2.0
		vertex 0.0 0.0 2.0
		vertex 0.43301269412 -0.25 2.0
	endloop
endfacet
facet normal 0.0 0.0 1.0
	outer loop
		vertex 0.43301269412 -0.25 2.0
		vertex 0.0 0.0 2.0
		vertex 0.321393817663 -0.383022218943 2.0
	endloop
endfacet
facet normal 0.0 0.0 1.0
	outer loop
		vertex 0.321393817663 -0.383022218943 2.0
		vertex 0.0 0.0 2.0
		vertex 0.171010077 -0.469846308231 2.0
	endloop
endfacet
facet normal 0.0 0.0 1.0
	outer loop
		vertex 0.171010077 -0.469846308231 2.0
		vertex 0.0 0.0 2.0
		vertex 6.12323426293e-17 -0.5 2.0
	endloop
endfacet
facet normal 0.0 0.0 1.0
	outer loop
		vertex 6.12323426293e-17 -0.5 2.0
		vertex 0.0 0.0 2.0
		vertex -0.171010077 -0.469846308231 2.0
	endloop
endfacet
facet normal 0.0 -0.0 1.0
	outer loop
		vertex -0.171010077 -0.469846308231 2.0
		vertex 0.0 0.0 2.0
		vertex -0.321393817663 -0.383022218943 2.0
	endloop
endfacet
facet normal 0.0 -0.0 1.0
	outer loop
		vertex -0.321393817663 -0.383022218943 2.0
		vertex 0.0 0.0 2.0
		vertex -0.43301269412 -0.25 2.0
	endloop
endfacet
facet normal 0.0 -0.0 1.0
	outer loop
		vertex -0.43301269412 -0.25 2.0
		vertex 0.0 0.0 2.0
		vertex -0.492403864861 -0.0868240892887 2.0
	endloop
endfacet
facet normal 0.0 0.0 1.0
	outer loop
		vertex -0.492403864861 -0.0868240892887 2.0
		vertex 0.0 0.0 2.0
		vertex -0.492403864861 0.0868240892887 2.0
	endloop
endfacet
facet normal -0.0 0.0 1.0
	outer loop
		vertex -0.492403864861 0.0868240892887 2.0
		vertex 0.0 0.0 2.0
		vertex -0.43301269412 0.25 2.0
	endloop
endfacet
facet normal -0.0 0.0 1.0
	outer loop
		vertex -0.43301269412 0.25 2.0
		vertex 0.0 0.0 2.0
		vertex -0.321393817663 0.383022218943 2.0
	endloop
endfacet
facet normal -0.0 0.0 1.0
	outer loop
		vertex -0.321393817663 0.383022218943 2.0
		vertex 0.0 0.0 2.0
		vertex -0.171010077 0.469846308231 2.0
	endloop
endfacet
facet normal -0.0 0.0 1.0
	outer loop
		vertex -0.171010077 0.469846308231 2.0
		vertex 0.0 0.0 2.0
		vertex 0.0 0.5 2.0
	endloop
endfacet
endsolid mesh