solid mesh
facet normal 0.0 0.0 -1.0
	outer loop
		vertex 0.0 0.0 -2.0
		vertex 0.0 1.0 -2.0
		vertex 0.173648178577 0.984807729721 -2.0
	endloop
endfacet
facet normal 0.0 0.0 -1.0
	outer loop
		vertex 0.0 0.0 -2.0
		vertex 0.173648178577 0.984807729721 -2.0
		vertex 0.342020153999 0.939692616463 -2.0
	endloop
endfacet
facet normal 0.0 0.0 -1.0
	outer loop
		vertex 0.0 0.0 -2.0
		vertex 0.342020153999 0.939692616463 -2.0
		vertex 0.5 0.866025388241 -2.0
	endloop
endfacet
facet normal 0.0 0.0 -1.0
	outer loop
		vertex 0.0 0.0 -2.0
		vertex 0.5 0.866025388241 -2.0
		vertex 0.642787635326 0.766044437885 -2.0
	endloop
endfacet
facet normal 0.0 0.0 -1.0
	outer loop
		vertex 0.0 0.0 -2.0
		vertex 0.642787635326 0.766044437885 -2.0
		vertex 0.766044437885 0.642787635326 -2.0
	endloop
endfacet
facet normal 0.0 0.0 -1.0
	outer loop
		vertex 0.0 0.0 -2.0
		vertex 0.766044437885 0.642787635326 -2.0
		vertex 0.866025388241 0.5 -2.0
	endloop
endfacet
facet normal 0.0 0.0 -1.0
	outer loop
		vertex 0.0 0.0 -2.0
		vertex 0.866025388241 0.5 -2.0
		vertex 0.939692616463 0.342020153999 -2.0
	endloop
endfacet
facet normal 0.0 0.0 -1.0
	outer loop
		vertex 0.0 0.0 -2.0
		vertex 0.939692616463 0.342020153999 -2.0
		vertex 0.984807729721 0.173648178577 -2.0
	endloop
endfacet
facet normal 0.0 0.0 -1.0
	outer loop
		vertex 0.0 0.0 -2.0
		vertex 0.984807729721 0.173648178577 -2.0
		vertex 1.0 6.12323426293e-17 -2.0
	endloop
endfacet
facet normal 0.0 0.0 -1.0
	outer loop
		vertex 0.0 0.0 -2.0
		vertex 1.0 6.12323426293e-17 -2.0
		vertex 0.984807729721 -0.173648178577 -2.0
	endloop
endfacet
facet normal 0.0 0.0 -1.0
	outer loop
		vertex 0.0 0.0 -2.0
		vertex 0.984807729721 -0.173648178577 -2.0
		vertex 0.939692616463 -0.342020153999 -2.0
	endloop
endfacet
facet normal 0.0 0.0 -1.0
	outer loop
		vertex 0.0 0.0 -2.0
		vertex 0.939692616463 -0.342020153999 -2.0
		vertex 0.866025388241 -0.5 -2.0
	endloop
endfacet
facet normal 0.0 0.0 -1.0
	outer loop
		vertex 0.0 0.0 -2.0
		vertex 0.866025388241 -0.5 -2.0
		vertex 0.766044437885 -0.642787635326 -2.0
	endloop
endfacet
facet normal 0.0 0.0 -1.0
	outer loop
		vertex 0.0 0.0 -2.0
		vertex 0.766044437885 -0.642787635326 -2.0
		vertex 0.642787635326 -0.766044437885 -2.0
	endloop
endfacet
facet normal 0.0 0.0 -1.0
	outer loop
		vertex 0.0 0.0 -2.0
		vertex 0.642787635326 -0.766044437885 -2.0
		vertex 0.5 -0.866025388241 -2.0
	endloop
endfacet
facet normal 0.0 0.0 -1.0
	outer loop
		vertex 0.0 0.0 -2.0
		vertex 0.5 -0.866025388241 -2.0
		vertex 0.342020153999 -0.939692616463 -2.0
	endloop
endfacet
facet normal 0.0 0.0 -1.0
	outer loop
		vertex 0.0 0.0 -2.0
		vertex 0.342020153999 -0.939692616463 -2.0
		vertex 0.173648178577 -0.984807729721 -2.0
	endloop
endfacet
facet normal 0.0 0.0 -1.0
	outer loop
		vertex 0.0 0.0 -2.0
		vertex 0.173648178577 -0.984807729721 -2.0
		vertex 1.22464685259e-16 -1.0 -2.0
	endloop
endfacet
facet normal 0.0 -0.0 -1.0
	outer loop
		vertex 0.0 0.0 -2.0
		vertex 1.22464685259e-16 -1.0 -2.0
		vertex -0.173648178577 -0.984807729721 -2.0
	endloop
endfacet
facet normal 0.0 0.0 -1.0
	outer loop
		vertex 0.0 0.0 -2.0
		vertex -0.173648178577 -0.984807729721 -2.0
		vertex -0.342020153999 -0.939692616463 -2.0
	endloop
endfacet
facet normal 0.0 0.0 -1.0
	outer loop
		vertex 0.0 0.0 -2.0
		vertex -0.342020153999 -0.939692616463 -2.0
		vertex -0.5 -0.866025388241 -2.0
	endloop
endfacet
facet normal 0.0 0.0 -1.0
	outer loop
		vertex 0.0 0.0 -2.0
		vertex -0.5 -0.866025388241 -2.0
		vertex -0.642787635326 -0.766044437885 -2.0
	endloop
endfacet
facet normal 0.0 0.0 -1.0
	outer loop
		vertex 0.0 0.0 -2.0
		vertex -0.642787635326 -0.766044437885 -2.0
		vertex -0.766044437885 -0.642787635326 -2.0
	endloop
endfacet
facet normal 0.0 0.0 -1.0
	outer loop
		vertex 0.0 0.0 -2.0
		vertex -0.766044437885 -0.642787635326 -2.0
		vertex -0.866025388241 -0.5 -2.0
	endloop
endfacet
facet normal 0.0 0.0 -1.0
	outer loop
		vertex 0.0 0.0 -2.0
		vertex -0.866025388241 -0.5 -2.0
		vertex -0.939692616463 -0.342020153999 -2.0
	endloop
endfacet
facet normal 0.0 0.0 -1.0
	outer loop
		vertex 0.0 0.0 -2.0
		vertex -0.939692616463 -0.342020153999 -2.0
		vertex -0.984807729721 -0.173648178577 -2.0
	endloop
endfacet
facet normal 0.0 0.0 -1.0
	outer loop
		vertex 0.0 0.0 -2.0
		vertex -0.984807729721 -0.173648178577 -2.0
		vertex -1.0 -1.83697014653e-16 -2.0
	endloop
endfacet
facet normal -0.0 0.0 -1.0
	outer loop
		vertex 0.0 0.0 -2.0
		vertex -1.0 -1.83697014653e-16 -2.0
		vertex -0.984807729721 0.173648178577 -2.0
	endloop
endfacet
facet normal 0.0 0.0 -1.0
	outer loop
		vertex 0.0 0.0 -2.0
		vertex -0.984807729721 0.173648178577 -2.0
		vertex -0.939692616463 0.342020153999 -2.0
	endloop
endfacet
facet normal 0.0 0.0 -1.0
	outer loop
		vertex 0.0 0.0 -2.0
		vertex -0.939692616463 0.342020153999 -2.0
		vertex -0.866025388241 0.5 -2.0
	endloop
endfacet
facet normal 0.0 0.0 -1.0
	outer loop
		vertex 0.0 0.0 -2.0
		vertex -0.866025388241 0.5 -2.0
		vertex -0.766044437885 0.642787635326 -2.0
	endloop
endfacet
facet normal 0.0 0.0 -1.0
	outer loop
		vertex 0.0 0.0 -2.0
		vertex -0.766044437885 0.642787635326 -2.0
		vertex -0.642787635326 0.766044437885 -2.0
	endloop
endfacet
facet normal 0.0 0.0 -1.0
	outer loop
		vertex 0.0 0.0 -2.0
		vertex -0.642787635326 0.766044437885 -2.0
		vertex -0.5 0.866025388241 -2.0
	endloop
endfacet
facet normal 0.0 0.0 -1.0
	outer loop
		vertex 0.0 0.0 -2.0
		vertex -0.5 0.866025388241 -2.0
		vertex -0.342020153999 0.939692616463 -2.0
	endloop
endfacet
facet normal 0.0 0.0 -1.0
	outer loop
		vertex 0.0 0.0 -2.0
		vertex -0.342020153999 0.939692616463 -2.0
		vertex -0.173648178577 0.984807729721 -2.0
	endloop
endfacet
facet normal 0.0 0.0 1.0
	outer loop
		vertex 0.0 0.0 -2.0
		vertex 0.173648178577 0.984807729721 -2.0
		vertex 0.0 1.0 -2.0
	endloop
endfacet
facet normal 0.0871558748971 0.99619468653 -0.0
	outer loop
		vertex 0.0 1.0 -2.0
		vertex 0.0 1.0 2.0
		vertex 0.173648178577 0.984807729721 -2.0
	endloop
endfacet
facet normal 0.0871558748971 0.99619468653 -0.0
	outer loop
		vertex 0.173648178577 0.984807729721 -2.0
		vertex 0.0 1.0 2.0
		vertex 0.173648178577 0.984807729721 2.0
	endloop
endfacet
facet normal 0.258818929573 0.965925857245 -0.0
	outer loop
		vertex 0.173648178577 0.984807729721 -2.0
		vertex 0.173648178577 0.984807729721 2.0
		vertex 0.342020153999 0.939692616463 -2.0
	endloop
endfacet
facet normal 0.258818929573 0.965925857245 -0.0
	outer loop
		vertex 0.342020153999 0.939692616463 -2.0
		vertex 0.173648178577 0.984807729721 2.0
		vertex 0.342020153999 0.939692616463 2.0
	endloop
endfacet
facet normal 0.422618338067 0.906307751445 -0.0
	outer loop
		vertex 0.342020153999 0.939692616463 -2.0
		vertex 0.342020153999 0.939692616463 2.0
		vertex 0.5 0.866025388241 -2.0
	endloop
endfacet
facet normal 0.422618338067 0.906307751445 -0.0
	outer loop
		vertex 0.5 0.866025388241 -2.0
		vertex 0.342020153999 0.939692616463 2.0
		vertex 0.5 0.866025388241 2.0
	endloop
endfacet
facet normal 0.573576327552 0.819152120471 -0.0
	outer loop
		vertex 0.5 0.866025388241 -2.0
		vertex 0.5 0.866025388241 2.0
		vertex 0.642787635326 0.766044437885 -2.0
	endloop
endfacet
facet normal 0.573576327552 0.819152120471 -0.0
	outer loop
		vertex 0.642787635326 0.766044437885 -2.0
		vertex 0.5 0.866025388241 2.0
		vertex 0.642787635326 0.766044437885 2.0
	endloop
endfacet
facet normal 0.707106781187 0.707106781187 -0.0
	outer loop
		vertex 0.642787635326 0.766044437885 -2.0
		vertex 0.642787635326 0.766044437885 2.0
		vertex 0.766044437885 0.642787635326 -2.0
	endloop
endfacet
facet normal 0.707106781187 0.707106781187 -0.0
	outer loop
		vertex 0.766044437885 0.642787635326 -2.0
		vertex 0.642787635326 0.766044437885 2.0
		vertex 0.766044437885 0.642787635326 2.0
	endloop
endfacet
facet normal 0.819152120471 0.573576327552 -0.0
	outer loop
		vertex 0.766044437885 0.642787635326 -2.0
		vertex 0.766044437885 0.642787635326 2.0
		vertex 0.866025388241 0.5 -2.0
	endloop
endfacet
facet normal 0.819152120471 0.573576327552 -0.0
	outer loop
		vertex 0.866025388241 0.5 -2.0
		vertex 0.766044437885 0.642787635326 2.0
		vertex 0.866025388241 0.5 2.0
	endloop
endfacet
facet normal 0.906307751445 0.422618338067 -0.0
	outer loop
		vertex 0.866025388241 0.5 -2.0
		vertex 0.866025388241 0.5 2.0
		vertex 0.939692616463 0.342020153999 -2.0
	endloop
endfacet
facet normal 0.906307751445 0.422618338067 -0.0
	outer loop
		vertex 0.939692616463 0.342020153999 -2.0
		vertex 0.866025388241 0.5 2.0
		vertex 0.939692616463 0.342020153999 2.0
	endloop
endfacet
facet normal 0.965925857245 0.258818929573 -0.0
	outer loop
		vertex 0.939692616463 0.342020153999 -2.0
		vertex 0.939692616463 0.342020153999 2.0
		vertex 0.984807729721 0.173648178577 -2.0
	endloop
endfacet
facet normal 0.965925857245 0.258818929573 -0.0
	outer loop
		vertex 0.984807729721 0.173648178577 -2.0
		vertex 0.939692616463 0.342020153999 2.0
		vertex 0.984807729721 0.173648178577 2.0
	endloop
endfacet
facet normal 0.99619468653 0.0871558748971 -0.0
	outer loop
		vertex 0.984807729721 0.173648178577 -2.0
		vertex 0.984807729721 0.173648178577 2.0
		vertex 1.0 6.12323426293e-17 -2.0
	endloop
endfacet
facet normal 0.99619468653 0.0871558748971 -0.0
	outer loop
		vertex 1.0 6.12323426293e-17 -2.0
		vertex 0.984807729721 0.173648178577 2.0
		vertex 1.0 6.12323426293e-17 2.0
	endloop
endfacet
facet normal 0.99619468653 -0.0871558748971 0.0
	outer loop
		vertex 1.0 6.12323426293e-17 -2.0
		vertex 1.0 6.12323426293e-17 2.0
		vertex 0.984807729721 -0.173648178577 -2.0
	endloop
endfacet
facet normal 0.99619468653 -0.0871558748971 0.0
	outer loop
		vertex 0.984807729721 -0.173648178577 -2.0
		vertex 1.0 6.12323426293e-17 2.0
		vertex 0.984807729721 -0.173648178577 2.0
	endloop
endfacet
facet normal 0.965925857245 -0.258818929573 0.0
	outer loop
		vertex 0.984807729721 -0.173648178577 -2.0
		vertex 0.984807729721 -0.173648178577 2.0
		vertex 0.939692616463 -0.342020153999 -2.0
	endloop
endfacet
facet normal 0.965925857245 -0.258818929573 0.0
	outer loop
		vertex 0.939692616463 -0.342020153999 -2.0
		vertex 0.984807729721 -0.173648178577 2.0
		vertex 0.939692616463 -0.342020153999 2.0
	endloop
endfacet
facet normal 0.906307751445 -0.422618338067 0.0
	outer loop
		vertex 0.939692616463 -0.342020153999 -2.0
		vertex 0.939692616463 -0.342020153999 2.0
		vertex 0.866025388241 -0.5 -2.0
	endloop
endfacet
facet normal 0.906307751445 -0.422618338067 0.0
	outer loop
		vertex 0.866025388241 -0.5 -2.0
		vertex 0.939692616463 -0.342020153999 2.0
		vertex 0.866025388241 -0.5 2.0
	endloop
endfacet
facet normal 0.819152120471 -0.573576327552 0.0
	outer loop
		vertex 0.866025388241 -0.5 -2.0
		vertex 0.866025388241 -0.5 2.0
		vertex 0.766044437885 -0.642787635326 -2.0
	endloop
endfacet
facet normal 0.819152120471 -0.573576327552 0.0
	outer loop
		vertex 0.766044437885 -0.642787635326 -2.0
		vertex 0.866025388241 -0.5 2.0
		vertex 0.766044437885 -0.642787635326 2.0
	endloop
endfacet
facet normal 0.707106781187 -0.707106781187 0.0
	outer loop
		vertex 0.766044437885 -0.642787635326 -2.0
		vertex 0.766044437885 -0.642787635326 2.0
		vertex 0.642787635326 -0.766044437885 -2.0
	endloop
endfacet
facet normal 0.707106781187 -0.707106781187 0.0
	outer loop
		vertex 0.642787635326 -0.766044437885 -2.0
		vertex 0.766044437885 -0.642787635326 2.0
		vertex 0.642787635326 -0.766044437885 2.0
	endloop
endfacet
facet normal 0.573576327552 -0.819152120471 0.0
	outer loop
		vertex 0.642787635326 -0.766044437885 -2.0
		vertex 0.642787635326 -0.766044437885 2.0
		vertex 0.5 -0.866025388241 -2.0
	endloop
endfacet
facet normal 0.573576327552 -0.819152120471 0.0
	outer loop
		vertex 0.5 -0.866025388241 -2.0
		vertex 0.642787635326 -0.766044437885 2.0
		vertex 0.5 -0.866025388241 2.0
	endloop
endfacet
facet normal 0.422618338067 -0.906307751445 0.0
	outer loop
		vertex 0.5 -0.866025388241 -2.0
		vertex 0.5 -0.866025388241 2.0
		vertex 0.342020153999 -0.939692616463 -2.0
	endloop
endfacet
facet normal 0.422618338067 -0.906307751445 0.0
	outer loop
		vertex 0.342020153999 -0.939692616463 -2.0
		vertex 0.5 -0.866025388241 2.0
		vertex 0.342020153999 -0.939692616463 2.0
	endloop
endfacet
facet normal 0.258818929573 -0.965925857245 0.0
	outer loop
		vertex 0.342020153999 -0.939692616463 -2.0
		vertex 0.342020153999 -0.939692616463 2.0
		vertex 0.173648178577 -0.984807729721 -2.0
	endloop
endfacet
facet normal 0.258818929573 -0.965925857245 0.0
	outer loop
		vertex 0.173648178577 -0.984807729721 -2.0
		vertex 0.342020153999 -0.939692616463 2.0
		vertex 0.173648178577 -0.984807729721 2.0
	endloop
endfacet
facet normal 0.0871558748971 -0.99619468653 0.0
	outer loop
		vertex 0.173648178577 -0.984807729721 -2.0
		vertex 0.173648178577 -0.984807729721 2.0
		vertex 1.22464685259e-16 -1.0 -2.0
	endloop
endfacet
facet normal 0.0871558748971 -0.99619468653 0.0
	outer loop
		vertex 1.22464685259e-16 -1.0 -2.0
		vertex 0.173648178577 -0.984807729721 2.0
		vertex 1.22464685259e-16 -1.0 2.0
	endloop
endfacet
facet normal -0.0871558748971 -0.99619468653 0.0
	outer loop
		vertex 1.22464685259e-16 -1.0 -2.0
		vertex 1.22464685259e-16 -1.0 2.0
		vertex -0.173648178577 -0.984807729721 -2.0
	endloop
endfacet
facet normal -0.0871558748971 -0.99619468653 0.0
	outer loop
		vertex -0.173648178577 -0.984807729721 -2.0
		vertex 1.22464685259e-16 -1.0 2.0
		vertex -0.173648178577 -0.984807729721 2.0
	endloop
endfacet
facet normal -0.258818929573 -0.965925857245 0.0
	outer loop
		vertex -0.173648178577 -0.984807729721 -2.0
		vertex -0.173648178577 -0.984807729721 2.0
		vertex -0.342020153999 -0.939692616463 -2.0
	endloop
endfacet
facet normal -0.258818929573 -0.965925857245 0.0
	outer loop
		vertex -0.342020153999 -0.939692616463 -2.0
		vertex -0.173648178577 -0.984807729721 2.0
		vertex -0.342020153999 -0.939692616463 2.0
	endloop
endfacet
facet normal -0.422618338067 -0.906307751445 0.0
	outer loop
		vertex -0.342020153999 -0.939692616463 -2.0
		vertex -0.342020153999 -0.939692616463 2.0
		vertex -0.5 -0.866025388241 -2.0
	endloop
endfacet
facet normal -0.422618338067 -0.906307751445 0.0
	outer loop
		vertex -0.5 -0.866025388241 -2.0
		vertex -0.342020153999 -0.939692616463 2.0
		vertex -0.5 -0.866025388241 2.0
	endloop
endfacet
facet normal -0.573576327552 -0.819152120471 0.0
	outer loop
		vertex -0.5 -0.866025388241 -2.0
		vertex -0.5 -0.866025388241 2.0
		vertex -0.642787635326 -0.766044437885 -2.0
	endloop
endfacet
facet normal -0.573576327552 -0.819152120471 0.0
	outer loop
		vertex -0.642787635326 -0.766044437885 -2.0
		vertex -0.5 -0.866025388241 2.0
		vertex -0.642787635326 -0.766044437885 2.0
	endloop
endfacet
facet normal -0.707106781187 -0.707106781187 0.0
	outer loop
		vertex -0.642787635326 -0.766044437885 -2.0
		vertex -0.642787635326 -0.766044437885 2.0
		vertex -0.766044437885 -0.642787635326 -2.0
	endloop
endfacet
facet normal -0.707106781187 -0.707106781187 0.0
	outer loop
		vertex -0.766044437885 -0.642787635326 -2.0
		vertex -0.642787635326 -0.766044437885 2.0
		vertex -0.766044437885 -0.642787635326 2.0
	endloop
endfacet
facet normal -0.819152120471 -0.573576327552 0.0
	outer loop
		vertex -0.766044437885 -0.642787635326 -2.0
		vertex -0.766044437885 -0.642787635326 2.0
		vertex -0.866025388241 -0.5 -2.0
	endloop
endfacet
facet normal -0.819152120471 -0.573576327552 0.0
	outer loop
		vertex -0.866025388241 -0.5 -2.0
		vertex -0.766044437885 -0.642787635326 2.0
		vertex -0.866025388241 -0.5 2.0
	endloop
endfacet
facet normal -0.906307751445 -0.422618338067 0.0
	outer loop
		vertex -0.866025388241 -0.5 -2.0
		vertex -0.866025388241 -0.5 2.0
		vertex -0.939692616463 -0.342020153999 -2.0
	endloop
endfacet
facet normal -0.906307751445 -0.422618338067 0.0
	outer loop
		vertex -0.939692616463 -0.342020153999 -2.0
		vertex -0.866025388241 -0.5 2.0
		vertex -0.939692616463 -0.342020153999 2.0
	endloop
endfacet
facet normal -0.965925857245 -0.258818929573 0.0
	outer loop
		vertex -0.939692616463 -0.342020153999 -2.0
		vertex -0.939692616463 -0.342020153999 2.0
		vertex -0.984807729721 -0.173648178577 -2.0
	endloop
endfacet
facet normal -0.965925857245 -0.258818929573 0.0
	outer loop
		vertex -0.984807729721 -0.173648178577 -2.0
		vertex -0.939692616463 -0.342020153999 2.0
		vertex -0.984807729721 -0.173648178577 2.0
	endloop
endfacet
facet normal -0.99619468653 -0.0871558748971 0.0
	outer loop
		vertex -0.984807729721 -0.173648178577 -2.0
		vertex -0.984807729721 -0.173648178577 2.0
		vertex -1.0 -1.83697014653e-16 -2.0
	endloop
endfacet
facet normal -0.99619468653 -0.0871558748971 0.0
	outer loop
		vertex -1.0 -1.83697014653e-16 -2.0
		vertex -0.984807729721 -0.173648178577 2.0
		vertex -1.0 -1.83697014653e-16 2.0
	endloop
endfacet
facet normal -0.99619468653 0.0871558748971 0.0
	outer loop
		vertex -1.0 -1.83697014653e-16 -2.0
		vertex -1.0 -1.83697014653e-16 2.0
		vertex -0.984807729721 0.173648178577 -2.0
	endloop
endfacet
facet normal -0.99619468653 0.0871558748971 0.0
	outer loop
		vertex -0.984807729721 0.173648178577 -2.0
		vertex -1.0 -1.83697014653e-16 2.0
		vertex -0.984807729721 0.173648178577 2.0
	endloop
endfacet
facet normal -0.965925857245 0.258818929573 0.0
	outer loop
		vertex -0.984807729721 0.173648178577 -2.0
		vertex -0.984807729721 0.173648178577 2.0
		vertex -0.939692616463 0.342020153999 -2.0
	endloop
endfacet
facet normal -0.965925857245 0.258818929573 0.0
	outer loop
		vertex -0.939692616463 0.342020153999 -2.0
		vertex -0.984807729721 0.173648178577 2.0
		vertex -0.939692616463 0.342020153999 2.0
	endloop
endfacet
facet normal -0.906307751445 0.422618338067 0.0
	outer loop
		vertex -0.939692616463 0.342020153999 -2.0
		vertex -0.939692616463 0.342020153999 2.0
		vertex -0.866025388241 0.5 -2.0
	endloop
endfacet
facet normal -0.906307751445 0.422618338067 0.0
	outer loop
		vertex -0.866025388241 0.5 -2.0
		vertex -0.939692616463 0.342020153999 2.0
		vertex -0.866025388241 0.5 2.0
	endloop
endfacet
facet normal -0.819152120471 0.573576327552 0.0
	outer loop
		vertex -0.866025388241 0.5 -2.0
		vertex -0.866025388241 0.5 2.0
		vertex -0.766044437885 0.642787635326 -2.0
	endloop
endfacet
facet normal -0.819152120471 0.573576327552 0.0
	outer loop
		vertex -0.766044437885 0.642787635326 -2.0
		vertex -0.866025388241 0.5 2.0
		vertex -0.766044437885 0.642787635326 2.0
	endloop
endfacet
facet normal -0.707106781187 0.707106781187 0.0
	outer loop
		vertex -0.766044437885 0.642787635326 -2.0
		vertex -0.766044437885 0.642787635326 2.0
		vertex -0.642787635326 0.766044437885 -2.0
	endloop
endfacet
facet normal -0.707106781187 0.707106781187 0.0
	outer loop
		vertex -0.642787635326 0.766044437885 -2.0
		vertex -0.766044437885 0.642787635326 2.0
		vertex -0.642787635326 0.766044437885 2.0
	endloop
endfacet
facet normal -0.573576327552 0.819152120471 0.0
	outer loop
		vertex -0.642787635326 0.766044437885 -2.0
		vertex -0.642787635326 0.766044437885 2.0
		vertex -0.5 0.866025388241 -2.0
	endloop
endfacet
facet normal -0.573576327552 0.819152120471 0.0
	outer loop
		vertex -0.5 0.866025388241 -2.0
		vertex -0.642787635326 0.766044437885 2.0
		vertex -0.5 0.866025388241 2.0
	endloop
endfacet
facet normal -0.422618338067 0.906307751445 0.0
	outer loop
		vertex -0.5 0.866025388241 -2.0
		vertex -0.5 0.866025388241 2.0
		vertex -0.342020153999 0.939692616463 -2.0
	endloop
endfacet
facet normal -0.422618338067 0.906307751445 0.0
	outer loop
		vertex -0.342020153999 0.939692616463 -2.0
		vertex -0.5 0.866025388241 2.0
		vertex -0.342020153999 0.939692616463 2.0
	endloop
endfacet
facet normal -0.258818929573 0.965925857245 0.0
	outer loop
		vertex -0.342020153999 0.939692616463 -2.0
		vertex -0.342020153999 0.939692616463 2.0
		vertex -0.173648178577 0.984807729721 -2.0
	endloop
endfacet
facet normal -0.258818929573 0.965925857245 0.0
	outer loop
		vertex -0.173648178577 0.984807729721 -2.0
		vertex -0.342020153999 0.939692616463 2.0
		vertex -0.173648178577 0.984807729721 2.0
	endloop
endfacet
facet normal -0.173648184484 0.98480775181 0.0
	outer loop
		vertex -0.342020153999 0.939692616463 -2.0
		vertex -0.342020153999 0.939692616463 2.0
		vertex 0.0 1.0 -2.0
	endloop
endfacet
facet normal -0.173648184484 0.98480775181 0.0
	outer loop
		vertex 0.0 1.0 -2.0
		vertex -0.342020153999 0.939692616463 2.0
		vertex 0.0 1.0 2.0
	endloop
endfacet
facet normal 0.0 0.0 1.0
	outer loop
		vertex 0.0 1.0 2.0
		vertex 0.0 0.0 2.0
		vertex 0.173648178577 0.984807729721 2.0
	endloop
endfacet
facet normal 0.0 0.0 1.0
	outer loop
		vertex 0.173648178577 0.984807729721 2.0
		vertex 0.0 0.0 2.0
		vertex 0.342020153999 0.939692616463 2.0
	endloop
endfacet
facet normal 0.0 0.0 1.0
	outer loop
		vertex 0.342020153999 0.939692616463 2.0
		vertex 0.0 0.0 2.0
		vertex 0.5 0.866025388241 2.0
	endloop
endfacet
facet normal 0.0 0.0 1.0
	outer loop
		vertex 0.5 0.866025388241 2.0
		vertex 0.0 0.0 2.0
		vertex 0.642787635326 0.766044437885 2.0
	endloop
endfacet
facet normal 0.0 0.0 1.0
	outer loop
		vertex 0.642787635326 0.766044437885 2.0
		vertex 0.0 0.0 2.0
		vertex 0.766044437885 0.642787635326 2.0
	endloop
endfacet
facet normal 0.0 0.0 1.0
	outer loop
		vertex 0.766044437885 0.642787635326 2.0
		vertex 0.0 0.0 2.0
		vertex 0.866025388241 0.5 2.0
	endloop
endfacet
facet normal 0.0 0.0 1.0
	outer loop
		vertex 0.866025388241 0.5 2.0
		vertex 0.0 0.0 2.0
		vertex 0.939692616463 0.342020153999 2.0
	endloop
endfacet
facet normal 0.0 0.0 1.0
	outer loop
		vertex 0.939692616463 0.342020153999 2.0
		vertex 0.0 0.0 2.0
		vertex 0.984807729721 0.173648178577 2.0
	endloop
endfacet
facet normal 0.0 0.0 1.0
	outer loop
		vertex 0.984807729721 0.173648178577 2.0
		vertex 0.0 0.0 2.0
		vertex 1.0 6.12323426293e-17 2.0
	endloop
endfacet
facet normal 0.0 0.0 1.0
	outer loop
		vertex 1.0 6.12323426293e-17 2.0
		vertex 0.0 0.0 2.0
		vertex 0.984807729721 -0.173648178577 2.0
	endloop
endfacet
facet normal 0.0 0.0 1.0
	outer loop
		vertex 0.984807729721 -0.173648178577 2.0
		vertex 0.0 0.0 2.0
		vertex 0.939692616463 -0.342020153999 2.0
	endloop
endfacet
facet normal 0.0 0.0 1.0
	outer loop
		vertex 0.939692616463 -0.342020153999 2.0
		vertex 0.0 0.0 2.0
		vertex 0.866025388241 -0.5 2.0
	endloop
endfacet
facet normal 0.0 0.0 1.0
	outer loop
		vertex 0.866025388241 -0.5 2.0
		vertex 0.0 0.0 2.0
		vertex 0.766044437885 -0.642787635326 2.0
	endloop
endfacet
facet normal 0.0 0.0 1.0
	outer loop
		vertex 0.766044437885 -0.642787635326 2.0
		vertex 0.0 0.0 2.0
		vertex 0.642787635326 -0.766044437885 2.0
	endloop
endfacet
facet normal 0.0 0.0 1.0
	outer loop
		vertex 0.642787635326 -0.766044437885 2.0
		vertex 0.0 0.0 2.0
		vertex 0.5 -0.866025388241 2.0
	endloop
endfacet
facet normal 0.0 0.0 1.0
	outer loop
		vertex 0.5 -0.866025388241 2.0
		vertex 0.0 0.0 2.0
		vertex 0.342020153999 -0.939692616463 2.0
	endloop
endfacet
facet normal 0.0 0.0 1.0
	outer loop
		vertex 0.342020153999 -0.939692616463 2.0
		vertex 0.0 0.0 2.0
		vertex 0.173648178577 -0.984807729721 2.0
	endloop
endfacet
facet normal 0.0 0.0 1.0
	outer loop
		vertex 0.173648178577 -0.984807729721 2.0
		vertex 0.0 0.0 2.0
		vertex 1.22464685259e-16 -1.0 2.0
	endloop
endfacet
facet normal 0.0 0.0 1.0
	outer loop
		vertex 1.22464685259e-16 -1.0 2.0
		vertex 0.0 0.0 2.0
		vertex -0.173648178577 -0.984807729721 2.0
	endloop
endfacet
facet normal 0.0 -0.0 1.0
	outer loop
		vertex -0.173648178577 -0.984807729721 2.0
		vertex 0.0 0.0 2.0
		vertex -0.342020153999 -0.939692616463 2.0
	endloop
endfacet
facet normal 0.0 -0.0 1.0
	outer loop
		vertex -0.342020153999 -0.939692616463 2.0
		vertex 0.0 0.0 2.0
		vertex -0.5 -0.866025388241 2.0
	endloop
endfacet
facet normal 0.0 -0.0 1.0
	outer loop
		vertex -0.5 -0.866025388241 2.0
		vertex 0.0 0.0 2.0
		vertex -0.642787635326 -0.766044437885 2.0
	endloop
endfacet
facet normal 0.0 -0.0 1.0
	outer loop
		vertex -0.642787635326 -0.766044437885 2.0
		vertex 0.0 0.0 2.0
		vertex -0.766044437885 -0.642787635326 2.0
	endloop
endfacet
facet normal 0.0 -0.0 1.0
	outer loop
		vertex -0.766044437885 -0.642787635326 2.0
		vertex 0.0 0.0 2.0
		vertex -0.866025388241 -0.5 2.0
	endloop
endfacet
facet normal 0.0 -0.0 1.0
	outer loop
		vertex -0.866025388241 -0.5 2.0
		vertex 0.0 0.0 2.0
		vertex -0.939692616463 -0.342020153999 2.0
	endloop
endfacet
facet normal 0.0 -0.0 1.0
	outer loop
		vertex -0.939692616463 -0.342020153999 2.0
		vertex 0.0 0.0 2.0
		vertex -0.984807729721 -0.173648178577 2.0
	endloop
endfacet
facet normal 0.0 -0.0 1.0
	outer loop
		vertex -0.984807729721 -0.173648178577 2.0
		vertex 0.0 0.0 2.0
		vertex -1.0 -1.83697014653e-16 2.0
	endloop
endfacet
facet normal 0.0 0.0 1.0
	outer loop
		vertex -1.0 -1.83697014653e-16 2.0
		vertex 0.0 0.0 2.0
		vertex -0.984807729721 0.173648178577 2.0
	endloop
endfacet
facet normal -0.0 0.0 1.0
	outer loop
		vertex -0.984807729721 0.173648178577 2.0
		vertex 0.0 0.0 2.0
		vertex -0.939692616463 0.342020153999 2.0
	endloop
endfacet
facet normal -0.0 0.0 1.0
	outer loop
		vertex -0.939692616463 0.342020153999 2.0
		vertex 0.0 0.0 2.0
		vertex -0.866025388241 0.5 2.0
	endloop
endfacet
facet normal -0.0 0.0 1.0
	outer loop
		vertex -0.866025388241 0.5 2.0
		vertex 0.0 0.0 2.0
		vertex -0.766044437885 0.642787635326 2.0
	endloop
endfacet
facet normal -0.0 0.0 1.0
	outer loop
		vertex -0.766044437885 0.642787635326 2.0
		vertex 0.0 0.0 2.0
		vertex -0.642787635326 0.766044437885 2.0
	endloop
endfacet
facet normal -0.0 0.0 1.0
	outer loop
		vertex -0.642787635326 0.766044437885 2.0
		vertex 0.0 0.0 2.0
		vertex -0.5 0.866025388241 2.0
	endloop
endfacet
facet normal -0.0 0.0 1.0
	outer loop
		vertex -0.5 0.866025388241 2.0
		vertex 0.0 0.0 2.0
		vertex -0.342020153999 0.939692616463 2.0
	endloop
endfacet
facet normal -0.0 0.0 1.0
	outer loop
		vertex -0.342020153999 0.939692616463 2.0
		vertex 0.0 0.0 2.0
		vertex -0.173648178577 0.984807729721 2.0
	endloop
endfacet
facet normal -0.0 0.0 1.0
	outer loop
		vertex -0.342020153999 0.939692616463 2.0
		vertex 0.0 0.0 2.0
		vertex 0.0 1.0 2.0
	endloop
endfacet
endsolid mesh